<?xml version="1.0" encoding="UTF-8"?>
<svg xmlns="http://www.w3.org/2000/svg" xmlns:xlink="http://www.w3.org/1999/xlink" width="1500pt" height="473pt" viewBox="0 0 1500 473" version="1.1">
<g id="surface1">
<path style=" stroke:none;fill-rule:nonzero;fill:rgb(97.647059%,72.156863%,0%);fill-opacity:1;" d="M 357.984375 379.066406 C 357.984375 370.769531 359.917969 360.210938 363.769531 347.371094 C 367.625 334.539062 372.488281 320.914062 378.363281 306.488281 C 384.226562 292.074219 390.769531 277.5625 397.984375 262.945312 C 405.195312 248.335938 412.152344 235.199219 418.867188 223.546875 C 425.574219 211.898438 431.609375 202.421875 436.980469 195.109375 C 442.34375 187.804688 446.035156 184.148438 448.050781 184.148438 C 449.386719 184.148438 451.234375 184.84375 453.582031 186.222656 C 455.925781 187.609375 458.277344 189.285156 460.628906 191.257812 C 462.972656 193.238281 465.070312 195.207031 466.917969 197.183594 C 468.757812 199.164062 469.683594 200.941406 469.683594 202.515625 C 469.683594 204.097656 468.503906 207.753906 466.164062 213.476562 C 463.8125 219.207031 460.878906 225.722656 457.359375 233.027344 C 453.835938 240.339844 450.0625 248.042969 446.035156 256.132812 C 442.011719 264.234375 438.316406 271.636719 434.96875 278.347656 C 431.609375 285.070312 428.929688 290.597656 426.917969 294.9375 C 424.902344 299.289062 424.226562 301.457031 424.902344 301.457031 C 425.234375 301.457031 427.167969 298.402344 430.691406 292.273438 C 434.210938 286.152344 438.742188 278.644531 444.273438 269.757812 C 449.8125 260.871094 456.179688 251.09375 463.394531 240.429688 C 470.605469 229.769531 477.8125 219.992188 485.03125 211.105469 C 492.242188 202.21875 499.121094 194.71875 505.660156 188.589844 C 512.203125 182.472656 517.988281 179.40625 523.019531 179.40625 C 525.703125 179.40625 528.554688 180.398438 531.574219 182.371094 C 534.59375 184.351562 537.273438 186.914062 539.625 190.070312 C 541.96875 193.238281 543.902344 196.6875 545.410156 200.441406 C 546.921875 204.199219 547.675781 207.84375 547.675781 211.398438 C 547.675781 216.539062 545.914062 222.65625 542.390625 229.765625 C 538.867188 236.875 534.921875 244.578125 530.566406 252.871094 C 526.203125 261.167969 522.265625 269.664062 518.742188 278.347656 C 515.21875 287.039062 513.460938 295.335938 513.460938 303.230469 C 513.460938 307.582031 514.128906 310.441406 515.472656 311.824219 C 516.808594 313.210938 518.65625 313.898438 521.007812 313.898438 C 526.039062 313.898438 530.820312 311.824219 535.347656 307.675781 C 539.875 303.53125 544.066406 298.992188 547.925781 294.050781 C 551.777344 289.117188 555.136719 284.570312 557.988281 280.421875 C 560.835938 276.273438 563.097656 274.203125 564.78125 274.203125 C 565.449219 274.203125 566.039062 275.089844 566.542969 276.867188 C 567.046875 278.644531 567.296875 279.933594 567.296875 280.71875 C 567.296875 284.671875 565.703125 289.902344 562.519531 296.421875 C 559.324219 302.9375 555.222656 309.257812 550.191406 315.375 C 545.160156 321.507812 539.449219 326.835938 533.085938 331.371094 C 526.707031 335.917969 520.503906 338.183594 514.46875 338.183594 C 510.101562 338.183594 505.738281 336.910156 501.382812 334.335938 C 497.019531 331.769531 493.160156 328.214844 489.8125 323.671875 C 486.453125 319.136719 483.773438 313.804688 481.761719 307.675781 C 479.75 301.554688 478.742188 294.9375 478.742188 287.828125 C 478.742188 278.746094 480.503906 269.664062 484.027344 260.578125 C 487.546875 251.496094 491.320312 243.300781 495.347656 235.988281 C 499.371094 228.683594 502.722656 222.761719 505.410156 218.214844 C 508.089844 213.679688 508.59375 211.402344 506.917969 211.402344 C 504.90625 211.402344 500.457031 215.84375 493.585938 224.730469 C 486.707031 233.617188 478.820312 244.679688 469.9375 257.910156 C 461.042969 271.148438 451.738281 285.753906 442.011719 301.753906 C 432.277344 317.746094 423.308594 332.957031 415.09375 347.371094 C 406.867188 361.792969 400.078125 374.234375 394.714844 384.699219 C 389.347656 395.167969 386.664062 401.785156 386.664062 404.542969 C 386.664062 410.082031 384.480469 412.839844 380.125 412.839844 C 375.761719 412.839844 370.980469 409.785156 365.785156 403.65625 C 360.578125 397.535156 357.984375 389.339844 357.984375 379.066406 Z M 357.984375 379.066406 "/>
<path style=" stroke:none;fill-rule:nonzero;fill:rgb(97.647059%,72.156863%,0%);fill-opacity:1;" d="M 180.355469 136.804688 C 204.128906 117.375 230.308594 101.609375 258.898438 89.507812 C 287.476562 77.410156 317.453125 71.359375 348.832031 71.359375 C 364.007812 71.359375 378.164062 72.945312 391.328125 76.121094 C 404.476562 79.296875 415.863281 83.761719 425.476562 89.507812 C 435.085938 95.261719 442.671875 102.203125 448.246094 110.332031 C 453.808594 118.464844 456.59375 127.6875 456.59375 137.996094 C 456.59375 151.085938 452.160156 162.492188 443.3125 172.207031 C 434.453125 181.929688 422.691406 190.054688 408.023438 196.601562 C 393.34375 203.144531 376.53125 208.007812 357.554688 211.179688 C 338.585938 214.355469 319.234375 215.9375 299.5 215.9375 C 281.785156 215.9375 264.082031 214.554688 246.378906 211.773438 C 228.664062 209.003906 211.71875 204.835938 195.53125 199.28125 C 174.285156 225.066406 157.964844 252.433594 146.582031 281.382812 C 135.199219 310.339844 129.507812 337.3125 129.507812 362.300781 C 129.507812 376.976562 131.523438 388.878906 135.578125 397.996094 C 139.621094 407.128906 145.066406 414.0625 151.894531 418.820312 C 158.726562 423.582031 166.695312 426.761719 175.800781 428.339844 C 184.90625 429.917969 194.261719 430.722656 203.882812 430.722656 C 229.171875 430.722656 250.171875 427.550781 266.867188 421.203125 C 283.5625 414.863281 297.34375 408.019531 308.230469 400.675781 C 319.101562 393.339844 327.828125 386.496094 334.410156 380.148438 C 340.980469 373.808594 346.554688 370.628906 351.105469 370.628906 C 352.113281 370.628906 353.382812 370.835938 354.898438 371.226562 C 356.417969 371.625 357.175781 373.808594 357.175781 377.769531 C 357.175781 384.90625 353.5 393.441406 346.171875 403.351562 C 338.832031 413.273438 328.589844 422.792969 315.4375 431.910156 C 302.277344 441.03125 286.71875 448.765625 268.765625 455.113281 C 250.800781 461.453125 230.9375 464.632812 209.191406 464.632812 C 190.46875 464.632812 172.503906 461.855469 155.308594 456.304688 C 138.105469 450.742188 122.796875 442.714844 109.398438 432.207031 C 95.984375 421.703125 85.359375 408.808594 77.523438 393.535156 C 69.671875 378.269531 65.757812 360.71875 65.757812 340.882812 C 65.757812 314.703125 72.839844 286.542969 87.007812 256.394531 C 101.164062 226.257812 120.140625 197.894531 143.925781 171.316406 C 129.753906 160.609375 118.621094 147.515625 110.535156 132.046875 C 102.433594 116.578125 98.390625 98.535156 98.390625 77.90625 C 98.390625 63.625 100.289062 51.429688 104.085938 41.3125 C 107.878906 31.203125 112.550781 23.074219 118.125 16.921875 C 123.683594 10.777344 129.375 6.214844 135.199219 3.234375 C 141.007812 0.261719 146.203125 -1.226562 150.757812 -1.226562 C 154.800781 -1.226562 158.972656 -0.0351562 163.277344 2.34375 C 167.570312 4.722656 169.730469 8.292969 169.730469 13.050781 C 169.730469 15.429688 169.21875 17.8125 168.210938 20.191406 C 167.191406 22.570312 166.054688 25.648438 164.796875 29.414062 C 163.527344 33.1875 162.386719 37.949219 161.378906 43.695312 C 160.359375 49.449219 159.863281 56.691406 159.863281 65.410156 C 159.863281 80.878906 161.628906 94.46875 165.175781 106.164062 C 168.710938 117.867188 173.773438 128.082031 180.355469 136.804688 Z M 370.078125 106.460938 C 341.738281 106.460938 315.175781 112.214844 290.394531 123.714844 C 265.597656 135.222656 243.34375 150.488281 223.609375 169.527344 C 234.234375 173.894531 245.621094 177.066406 257.761719 179.046875 C 269.902344 181.039062 282.542969 182.023438 295.707031 182.023438 C 310.375 182.023438 325.171875 180.933594 340.101562 178.75 C 355.019531 176.574219 368.429688 173.300781 380.324219 168.933594 C 392.207031 164.570312 401.953125 159.316406 409.542969 153.164062 C 417.132812 147.019531 420.925781 139.984375 420.925781 132.046875 C 420.925781 129.664062 420.414062 126.988281 419.40625 124.011719 C 418.386719 121.039062 416.109375 118.265625 412.578125 115.683594 C 409.03125 113.109375 403.851562 110.921875 397.019531 109.136719 C 390.191406 107.355469 381.199219 106.460938 370.078125 106.460938 Z M 370.078125 106.460938 "/>
<path style=" stroke:none;fill-rule:nonzero;fill:rgb(97.647059%,72.156863%,0%);fill-opacity:1;" d="M 644.277344 179.40625 C 657.019531 179.40625 667.082031 183.257812 674.464844 190.960938 C 681.839844 198.664062 685.535156 208.246094 685.535156 219.695312 C 685.535156 229.570312 682.59375 240.339844 676.730469 251.984375 C 670.855469 263.636719 662.890625 274.703125 652.828125 285.160156 C 642.765625 295.632812 631.105469 304.519531 617.859375 311.820312 C 604.605469 319.136719 590.601562 323.375 575.847656 324.558594 C 572.152344 338.777344 570.3125 351.8125 570.3125 363.664062 C 570.3125 372.753906 571.570312 378.972656 574.085938 382.324219 C 576.601562 385.683594 580.703125 387.359375 586.414062 387.359375 C 594.792969 387.359375 603.519531 384.695312 612.574219 379.363281 C 621.632812 374.03125 630.605469 367.21875 639.496094 358.925781 C 648.378906 350.628906 656.933594 341.742188 665.15625 332.261719 C 673.371094 322.785156 680.667969 313.898438 687.042969 305.601562 C 693.410156 297.308594 698.78125 290.402344 703.144531 284.867188 C 707.5 279.339844 710.1875 276.378906 711.195312 275.980469 C 711.863281 275.589844 712.453125 276.378906 712.957031 278.347656 C 713.460938 280.328125 713.710938 281.707031 713.710938 282.496094 C 713.710938 285.261719 711.699219 290.492188 707.675781 298.191406 C 703.648438 305.894531 698.191406 314.6875 691.320312 324.558594 C 684.441406 334.4375 676.476562 344.90625 667.421875 355.960938 C 658.363281 367.023438 648.96875 377.09375 639.242188 386.175781 C 629.511719 395.265625 619.621094 402.765625 609.558594 408.691406 C 599.496094 414.617188 590.101562 417.574219 581.382812 417.574219 C 574 417.574219 567.207031 415.503906 561.003906 411.355469 C 554.792969 407.207031 549.34375 401.878906 544.652344 395.359375 C 539.949219 388.839844 536.261719 381.4375 533.582031 373.144531 C 530.890625 364.847656 529.554688 356.757812 529.554688 348.851562 C 529.554688 340.957031 530.8125 331.371094 533.328125 320.117188 C 535.84375 308.859375 539.53125 296.917969 544.398438 284.273438 C 549.257812 271.636719 555.042969 259.09375 561.757812 246.652344 C 568.460938 234.210938 576.097656 223.054688 584.652344 213.175781 C 593.203125 203.308594 602.515625 195.207031 612.574219 188.886719 C 622.640625 182.574219 633.207031 179.40625 644.277344 179.40625 Z M 662.894531 219.695312 C 662.894531 214.957031 661.886719 210.511719 659.875 206.363281 C 657.863281 202.21875 654.84375 200.144531 650.816406 200.144531 C 646.117188 200.144531 640.667969 203.105469 634.464844 209.03125 C 628.253906 214.957031 621.964844 222.859375 615.597656 232.730469 C 609.222656 242.609375 603.097656 253.761719 597.230469 266.203125 C 591.359375 278.648438 586.242188 291.386719 581.886719 304.417969 C 594.292969 302.046875 605.535156 297.410156 615.597656 290.496094 C 625.660156 283.589844 634.214844 275.980469 641.257812 267.6875 C 648.300781 259.390625 653.664062 250.902344 657.359375 242.210938 C 661.046875 233.523438 662.894531 226.015625 662.894531 219.695312 Z M 662.894531 219.695312 "/>
<path style=" stroke:none;fill-rule:nonzero;fill:rgb(97.647059%,72.156863%,0%);fill-opacity:1;" d="M 778.113281 179.40625 C 792.203125 179.40625 802.597656 183.359375 809.3125 191.257812 C 816.015625 199.160156 820.542969 208.640625 822.894531 219.691406 C 828.59375 209.429688 833.792969 200.9375 838.492188 194.21875 C 843.1875 187.503906 846.707031 184.148438 849.058594 184.148438 C 850.394531 184.148438 852.242188 184.839844 854.59375 186.21875 C 856.9375 187.609375 859.289062 189.285156 861.640625 191.257812 C 863.980469 193.238281 866.078125 195.503906 867.925781 198.070312 C 869.765625 200.640625 870.695312 202.910156 870.695312 204.882812 C 870.695312 207.648438 869.1875 212.980469 866.164062 220.878906 C 863.148438 228.78125 859.375 237.964844 854.84375 248.425781 C 850.316406 258.898438 845.363281 270.050781 840.003906 281.902344 C 834.632812 293.75 829.6875 305.40625 825.15625 316.859375 C 820.628906 328.316406 816.855469 338.878906 813.839844 348.550781 C 810.820312 358.238281 809.308594 366.03125 809.308594 371.953125 C 809.308594 376.695312 810.984375 379.066406 814.339844 379.066406 C 817.691406 379.066406 821.714844 376.5 826.417969 371.363281 C 831.109375 366.234375 835.976562 359.714844 841.007812 351.8125 C 846.039062 343.914062 851.152344 335.519531 856.355469 326.632812 C 861.550781 317.746094 866.246094 309.359375 870.445312 301.453125 C 874.632812 293.554688 878.320312 287.035156 881.511719 281.898438 C 884.695312 276.773438 886.796875 274.199219 887.800781 274.199219 C 888.46875 274.199219 889.0625 275.085938 889.5625 276.863281 C 890.066406 278.640625 890.320312 279.929688 890.320312 280.714844 C 890.320312 283.484375 888.886719 288.519531 886.042969 295.824219 C 883.1875 303.136719 879.328125 311.523438 874.46875 321.003906 C 869.601562 330.484375 864.152344 340.460938 858.117188 350.921875 C 852.078125 361.394531 845.867188 370.972656 839.496094 379.65625 C 833.121094 388.347656 826.832031 395.457031 820.632812 400.984375 C 814.421875 406.523438 808.808594 409.277344 803.777344 409.277344 C 800.757812 409.277344 797.3125 408.003906 793.460938 405.429688 C 789.601562 402.867188 785.992188 399.414062 782.644531 395.0625 C 779.285156 390.71875 776.519531 385.785156 774.339844 380.25 C 772.15625 374.722656 771.070312 368.796875 771.070312 362.476562 C 771.070312 357.347656 771.902344 350.238281 773.585938 341.148438 C 767.210938 350.238281 760.332031 359.316406 752.957031 368.398438 C 745.574219 377.488281 738.367188 385.683594 731.320312 392.984375 C 724.277344 400.300781 717.5625 406.222656 711.195312 410.761719 C 704.816406 415.296875 699.621094 417.570312 695.597656 417.570312 C 692.238281 417.570312 688.804688 416.183594 685.28125 413.421875 C 681.757812 410.664062 678.566406 406.90625 675.722656 402.167969 C 672.867188 397.425781 670.515625 391.800781 668.675781 385.28125 C 666.828125 378.765625 665.910156 371.757812 665.910156 364.25 C 665.910156 353.984375 667.75 342.328125 671.445312 329.296875 C 675.132812 316.261719 680.078125 302.835938 686.289062 289.007812 C 692.492188 275.1875 699.621094 261.753906 707.671875 248.71875 C 715.722656 235.6875 723.851562 224.042969 732.074219 213.765625 C 740.292969 203.5 748.429688 195.203125 756.480469 188.882812 C 764.527344 182.574219 771.738281 179.40625 778.113281 179.40625 Z M 703.144531 375.511719 C 703.144531 380.648438 704.316406 383.214844 706.667969 383.214844 C 712.027344 383.214844 718.742188 379.066406 726.792969 370.769531 C 734.84375 362.476562 742.972656 352.800781 751.195312 341.738281 C 759.410156 330.683594 767.375 319.523438 775.09375 308.265625 C 782.808594 297.007812 788.84375 288.414062 793.207031 282.492188 C 796.558594 274.59375 800 266.597656 803.523438 258.496094 C 807.042969 250.40625 810.648438 242.796875 814.339844 235.6875 C 814.339844 231.742188 814.167969 227.691406 813.839844 223.542969 C 813.5 219.394531 812.910156 215.546875 812.074219 211.988281 C 811.234375 208.4375 809.976562 205.574219 808.300781 203.398438 C 806.621094 201.230469 804.441406 200.140625 801.761719 200.140625 C 797.058594 200.140625 791.273438 203.691406 784.402344 210.804688 C 777.523438 217.914062 770.476562 227.003906 763.269531 238.054688 C 756.050781 249.117188 748.84375 261.457031 741.632812 275.085938 C 734.417969 288.710938 727.960938 301.949219 722.261719 314.78125 C 716.554688 327.621094 711.949219 339.46875 708.425781 350.328125 C 704.90625 361.199219 703.144531 369.585938 703.144531 375.511719 Z M 703.144531 375.511719 "/>
<path style=" stroke:none;fill-rule:nonzero;fill:rgb(97.647059%,72.156863%,0%);fill-opacity:1;" d="M 903.898438 217.324219 C 898.191406 215.351562 894.753906 212.585938 893.582031 209.03125 C 892.402344 205.472656 891.820312 201.53125 891.820312 197.179688 C 891.820312 191.65625 892.742188 187.703125 894.589844 185.332031 C 896.429688 182.964844 901.382812 181.777344 909.433594 181.777344 L 921.003906 181.777344 C 928.050781 167.558594 934.339844 155.914062 939.875 146.824219 C 945.410156 137.742188 949.183594 133.195312 951.195312 133.195312 C 952.53125 133.195312 954.378906 133.890625 956.730469 135.269531 C 959.074219 136.660156 961.421875 138.335938 963.773438 140.304688 C 966.117188 142.289062 968.214844 144.554688 970.0625 147.117188 C 971.902344 149.691406 972.832031 151.960938 972.832031 153.929688 C 972.832031 155.914062 971.988281 159.265625 970.316406 164 C 968.632812 168.746094 966.453125 174.472656 963.773438 181.183594 C 969.472656 181.582031 973.414062 182.871094 975.597656 185.035156 C 977.777344 187.210938 978.867188 191.847656 978.867188 198.957031 C 978.867188 204.097656 977.863281 208.34375 975.851562 211.695312 C 973.839844 215.058594 968.632812 216.734375 960.253906 216.734375 C 958.570312 216.734375 956.808594 216.734375 954.96875 216.734375 C 953.121094 216.734375 951.023438 216.9375 948.679688 217.324219 C 942.644531 231.542969 936.265625 246.457031 929.5625 262.054688 C 922.847656 277.664062 916.558594 292.667969 910.691406 307.078125 C 904.820312 321.503906 900.039062 334.539062 896.351562 346.183594 C 892.65625 357.835938 890.816406 366.429688 890.816406 371.957031 C 890.816406 374.324219 891.738281 376.101562 893.585938 377.289062 C 895.421875 378.472656 897.359375 379.066406 899.371094 379.066406 C 904.066406 379.066406 909.09375 376.503906 914.464844 371.363281 C 919.828125 366.234375 925.28125 359.71875 930.816406 351.8125 C 936.351562 343.917969 941.800781 335.523438 947.171875 326.632812 C 952.535156 317.746094 957.398438 309.359375 961.761719 301.453125 C 966.117188 293.554688 969.890625 287.039062 973.082031 281.902344 C 976.265625 276.773438 978.367188 274.199219 979.371094 274.199219 C 980.039062 274.199219 980.628906 275.089844 981.132812 276.867188 C 981.636719 278.644531 981.886719 279.929688 981.886719 280.71875 C 981.886719 283.484375 980.457031 288.519531 977.609375 295.824219 C 974.757812 303.136719 970.820312 311.523438 965.789062 321.003906 C 960.757812 330.484375 954.96875 340.464844 948.429688 350.921875 C 941.886719 361.394531 934.921875 370.976562 927.546875 379.65625 C 920.167969 388.351562 912.707031 395.460938 905.15625 400.988281 C 897.609375 406.523438 890.476562 409.28125 883.773438 409.28125 C 874.714844 409.28125 867.246094 404.644531 861.382812 395.359375 C 855.507812 386.085938 852.578125 375.125 852.578125 362.480469 C 852.578125 356.953125 854.085938 348.851562 857.105469 338.1875 C 860.125 327.523438 863.976562 315.582031 868.679688 302.34375 C 873.371094 289.117188 878.820312 275.089844 885.03125 260.28125 C 891.230469 245.464844 897.523438 231.15625 903.898438 217.324219 Z M 903.898438 217.324219 "/>
<path style=" stroke:none;fill-rule:nonzero;fill:rgb(97.647059%,72.156863%,0%);fill-opacity:1;" d="M 1056.347656 179.40625 C 1069.09375 179.40625 1079.15625 183.257812 1086.539062 190.960938 C 1093.910156 198.664062 1097.605469 208.246094 1097.605469 219.695312 C 1097.605469 229.570312 1094.664062 240.339844 1088.800781 251.984375 C 1082.925781 263.636719 1074.964844 274.703125 1064.898438 285.160156 C 1054.839844 295.632812 1043.175781 304.519531 1029.929688 311.820312 C 1016.675781 319.136719 1002.675781 323.375 987.917969 324.558594 C 984.222656 338.777344 982.382812 351.8125 982.382812 363.664062 C 982.382812 372.753906 983.640625 378.972656 986.15625 382.324219 C 988.671875 385.683594 992.773438 387.359375 998.484375 387.359375 C 1006.863281 387.359375 1015.589844 384.695312 1024.644531 379.363281 C 1033.703125 374.03125 1042.671875 367.21875 1051.566406 358.925781 C 1060.449219 350.628906 1069.003906 341.742188 1077.226562 332.261719 C 1085.441406 322.785156 1092.738281 313.898438 1099.117188 305.601562 C 1105.480469 297.308594 1110.851562 290.402344 1115.214844 284.867188 C 1119.570312 279.339844 1122.257812 276.378906 1123.265625 275.980469 C 1123.933594 275.589844 1124.523438 276.378906 1125.027344 278.347656 C 1125.527344 280.328125 1125.78125 281.707031 1125.78125 282.496094 C 1125.78125 285.261719 1123.769531 290.492188 1119.746094 298.191406 C 1115.71875 305.894531 1110.261719 314.6875 1103.390625 324.558594 C 1096.511719 334.4375 1088.546875 344.90625 1079.492188 355.960938 C 1070.433594 367.023438 1061.039062 377.09375 1051.316406 386.175781 C 1041.582031 395.265625 1031.691406 402.765625 1021.628906 408.691406 C 1011.566406 414.617188 1002.171875 417.574219 993.449219 417.574219 C 986.070312 417.574219 979.277344 415.503906 973.074219 411.355469 C 966.863281 407.207031 961.414062 401.878906 956.722656 395.359375 C 952.019531 388.839844 948.332031 381.4375 945.648438 373.144531 C 942.960938 364.847656 941.625 356.757812 941.625 348.851562 C 941.625 340.957031 942.886719 331.371094 945.398438 320.117188 C 947.914062 308.859375 951.601562 296.917969 956.46875 284.273438 C 961.328125 271.636719 967.113281 259.09375 973.828125 246.652344 C 980.535156 234.210938 988.167969 223.054688 996.722656 213.175781 C 1005.273438 203.308594 1014.585938 195.207031 1024.644531 188.886719 C 1034.710938 182.574219 1045.277344 179.40625 1056.347656 179.40625 Z M 1074.964844 219.695312 C 1074.964844 214.957031 1073.957031 210.511719 1071.945312 206.363281 C 1069.933594 202.21875 1066.914062 200.144531 1062.886719 200.144531 C 1058.1875 200.144531 1052.738281 203.105469 1046.535156 209.03125 C 1040.324219 214.957031 1034.039062 222.859375 1027.667969 232.730469 C 1021.292969 242.609375 1015.167969 253.761719 1009.304688 266.203125 C 1003.429688 278.648438 998.3125 291.386719 993.957031 304.417969 C 1006.363281 302.046875 1017.605469 297.410156 1027.667969 290.496094 C 1037.730469 283.589844 1046.285156 275.980469 1053.328125 267.6875 C 1060.375 259.390625 1065.734375 250.902344 1069.429688 242.210938 C 1073.117188 233.523438 1074.964844 226.015625 1074.964844 219.695312 Z M 1074.964844 219.695312 "/>
<path style=" stroke:none;fill-rule:nonzero;fill:rgb(97.647059%,72.156863%,0%);fill-opacity:1;" d="M 1189.683594 179.40625 C 1194.375 179.40625 1199.238281 180.101562 1204.273438 181.480469 C 1209.304688 182.871094 1213.832031 185.140625 1217.859375 188.292969 C 1221.882812 191.460938 1225.234375 195.3125 1227.921875 199.847656 C 1230.601562 204.390625 1231.945312 210.023438 1231.945312 216.734375 C 1231.945312 221.472656 1231.273438 226.019531 1229.933594 230.359375 C 1228.59375 234.710938 1226.828125 238.65625 1224.652344 242.210938 C 1222.46875 245.761719 1220.121094 248.632812 1217.605469 250.800781 C 1215.09375 252.976562 1212.65625 254.058594 1210.3125 254.058594 C 1206.285156 254.058594 1204.273438 251.300781 1204.273438 245.765625 C 1204.273438 240.238281 1204.605469 234.015625 1205.28125 227.101562 C 1205.949219 220.195312 1206.285156 213.976562 1206.285156 208.4375 C 1206.285156 202.910156 1204.101562 200.144531 1199.746094 200.144531 C 1193.707031 200.144531 1186.160156 205.773438 1177.101562 217.03125 C 1168.046875 228.285156 1159.15625 242.3125 1150.433594 259.09375 C 1141.710938 275.886719 1134.25 293.753906 1128.046875 312.710938 C 1121.835938 331.671875 1118.738281 348.851562 1118.738281 364.253906 C 1118.738281 372.949219 1119.992188 378.976562 1122.507812 382.328125 C 1125.023438 385.6875 1129.128906 387.363281 1134.835938 387.363281 C 1143.214844 387.363281 1151.945312 384.601562 1161 379.066406 C 1170.058594 373.539062 1179.027344 366.625 1187.921875 358.332031 C 1196.804688 350.035156 1205.359375 341.148438 1213.582031 331.671875 C 1221.796875 322.191406 1229.089844 313.304688 1235.46875 305.011719 C 1241.835938 296.714844 1247.207031 289.808594 1251.570312 284.273438 C 1255.925781 278.746094 1258.613281 275.980469 1259.621094 275.980469 C 1260.289062 275.980469 1260.878906 276.867188 1261.382812 278.644531 C 1261.882812 280.421875 1262.136719 281.710938 1262.136719 282.496094 C 1262.136719 285.261719 1260.125 290.492188 1256.097656 298.195312 C 1252.074219 305.898438 1246.617188 314.691406 1239.746094 324.5625 C 1232.863281 334.4375 1224.902344 344.90625 1215.847656 355.960938 C 1206.789062 367.023438 1197.394531 377.09375 1187.667969 386.175781 C 1177.9375 395.269531 1168.046875 402.765625 1157.980469 408.691406 C 1147.917969 414.617188 1138.523438 417.578125 1129.804688 417.578125 C 1122.425781 417.578125 1115.632812 415.503906 1109.429688 411.359375 C 1103.21875 407.210938 1097.769531 401.878906 1093.078125 395.363281 C 1088.375 388.84375 1084.6875 381.539062 1082.003906 373.441406 C 1079.316406 365.347656 1077.980469 357.351562 1077.980469 349.445312 C 1077.980469 341.550781 1079.316406 331.875 1082.003906 320.414062 C 1084.6875 308.964844 1088.460938 297.011719 1093.328125 284.570312 C 1098.1875 272.128906 1103.972656 259.59375 1110.6875 246.949219 C 1117.390625 234.3125 1124.851562 223.054688 1133.074219 213.179688 C 1141.289062 203.308594 1150.183594 195.210938 1159.746094 188.886719 C 1169.304688 182.574219 1179.28125 179.40625 1189.683594 179.40625 Z M 1189.683594 179.40625 "/>
<path style=" stroke:none;fill-rule:nonzero;fill:rgb(97.647059%,72.156863%,0%);fill-opacity:1;" d="M 1212.320312 379.066406 C 1212.320312 370.769531 1215.089844 357.738281 1220.625 339.964844 C 1226.160156 322.191406 1233.203125 302.441406 1241.757812 280.71875 C 1250.308594 259 1259.699219 236.488281 1269.933594 213.175781 C 1280.164062 189.878906 1289.972656 168.648438 1299.371094 149.488281 C 1308.753906 130.335938 1316.980469 114.632812 1324.023438 102.386719 C 1331.066406 90.148438 1335.597656 84.023438 1337.609375 84.023438 C 1339.285156 84.023438 1341.296875 84.714844 1343.648438 86.097656 C 1345.988281 87.484375 1348.339844 89.261719 1350.691406 91.429688 C 1353.035156 93.605469 1355.046875 95.871094 1356.730469 98.242188 C 1358.40625 100.613281 1359.246094 102.785156 1359.246094 104.757812 C 1359.246094 106.34375 1356.980469 112.757812 1352.453125 124.015625 C 1347.921875 135.269531 1342.304688 148.804688 1335.597656 164.597656 C 1328.882812 180.398438 1321.675781 197.285156 1313.960938 215.253906 C 1306.242188 233.230469 1299.199219 249.820312 1292.828125 265.019531 C 1286.453125 280.230469 1281.167969 292.863281 1276.980469 302.9375 C 1272.78125 313.007812 1271.019531 318.046875 1271.695312 318.046875 C 1272.027344 318.046875 1274.292969 314.785156 1278.488281 308.269531 C 1282.679688 301.753906 1288.210938 293.457031 1295.09375 283.386719 C 1301.964844 273.3125 1309.683594 262.558594 1318.238281 251.097656 C 1326.789062 239.644531 1335.257812 228.878906 1343.644531 218.808594 C 1352.027344 208.738281 1360 200.441406 1367.546875 193.925781 C 1375.09375 187.410156 1381.210938 184.148438 1385.910156 184.148438 C 1388.589844 184.148438 1391.523438 185.140625 1394.71875 187.109375 C 1397.902344 189.09375 1400.832031 191.460938 1403.523438 194.222656 C 1406.203125 196.988281 1408.46875 200.054688 1410.3125 203.402344 C 1412.152344 206.765625 1413.082031 209.828125 1413.082031 212.589844 C 1413.082031 216.542969 1411.652344 222.367188 1408.808594 230.066406 C 1405.953125 237.769531 1402.429688 246.5625 1398.238281 256.433594 C 1394.039062 266.308594 1389.433594 276.777344 1384.402344 287.832031 C 1379.371094 298.894531 1374.757812 309.660156 1370.566406 320.121094 C 1366.367188 330.589844 1362.84375 340.261719 1360 349.152344 C 1357.144531 358.039062 1355.722656 365.445312 1355.722656 371.367188 C 1355.722656 376.507812 1357.230469 379.070312 1360.25 379.070312 C 1363.9375 379.070312 1368.128906 376.507812 1372.828125 371.367188 C 1377.523438 366.242188 1382.390625 359.722656 1387.421875 351.816406 C 1392.453125 343.921875 1397.5625 335.527344 1402.769531 326.636719 C 1407.964844 317.75 1412.660156 309.363281 1416.859375 301.457031 C 1421.046875 293.558594 1424.734375 287.042969 1427.925781 281.90625 C 1431.109375 276.777344 1433.210938 274.203125 1434.21875 274.203125 C 1434.882812 274.203125 1435.472656 275.09375 1435.976562 276.871094 C 1436.480469 278.648438 1436.730469 279.933594 1436.730469 280.722656 C 1436.730469 283.488281 1435.300781 288.527344 1432.457031 295.828125 C 1429.605469 303.144531 1425.742188 311.527344 1420.882812 321.007812 C 1416.015625 330.488281 1410.570312 340.46875 1404.53125 350.929688 C 1398.492188 361.398438 1392.28125 370.980469 1385.914062 379.664062 C 1379.535156 388.355469 1373.332031 395.464844 1367.296875 400.992188 C 1361.257812 406.527344 1355.722656 409.285156 1350.691406 409.285156 C 1347.335938 409.285156 1343.726562 408.007812 1339.875 405.433594 C 1336.015625 402.871094 1332.40625 399.511719 1329.058594 395.367188 C 1325.699219 391.214844 1322.933594 386.578125 1320.753906 381.441406 C 1318.570312 376.3125 1317.484375 370.980469 1317.484375 365.445312 C 1317.484375 358.335938 1319.242188 349.355469 1322.765625 338.488281 C 1326.289062 327.628906 1330.644531 316.269531 1335.847656 304.421875 C 1341.046875 292.574219 1346.582031 280.628906 1352.453125 268.578125 C 1358.316406 256.53125 1363.519531 245.765625 1368.050781 236.289062 C 1372.578125 226.808594 1376.015625 219.109375 1378.367188 213.183594 C 1380.707031 207.257812 1381.046875 204.292969 1379.371094 204.292969 C 1377.359375 204.292969 1372.578125 208.839844 1365.03125 217.921875 C 1357.484375 227.015625 1348.503906 238.566406 1338.109375 252.582031 C 1327.710938 266.605469 1316.890625 281.910156 1305.65625 298.5 C 1294.414062 315.085938 1283.933594 330.785156 1274.210938 345.597656 C 1264.476562 360.410156 1256.511719 373.25 1250.308594 384.109375 C 1244.097656 394.976562 1241 401.789062 1241 404.546875 C 1241 410.082031 1238.816406 412.84375 1234.460938 412.84375 C 1230.097656 412.84375 1225.316406 409.789062 1220.121094 403.660156 C 1214.917969 397.535156 1212.320312 389.339844 1212.320312 379.066406 Z M 1212.320312 379.066406 "/>
</g>
</svg>
