<?xml version="1.0" encoding="utf-8"?>
<svg version="1.1" id="Capa_1" x="0px" y="0px" width="961px" height="303px" viewBox="171.903 925.112 1473.129 500.754" enable-background="new 340.5 953 961 303" xmlns="http://www.w3.org/2000/svg">
  <g id="Capa_1_1_" display="none" transform="matrix(1, 0, 0, 1, -3.803, 44.368)">
    <path display="inline" d="M166.948,1044.578c0.506,2.894,0.94,4.919,1.158,6.004c0.295,1.476,0.417,2.981,0.361,4.485 c0.042,5.475-1.223,10.88-3.689,15.769c-2.092,4.505-5.667,8.156-10.126,10.344c-3.475-4.63-7.706-8.64-12.514-11.862 c-5.084-3.375-10.547-6.144-16.275-8.246c-5.943-2.125-12.069-3.698-18.3-4.701c-6.098-0.998-12.267-1.506-18.445-1.521 c-5.624-0.044-11.24,0.416-16.782,1.375c-4.722,0.813-9.35,2.098-13.816,3.833c-3.539,1.327-6.765,3.371-9.476,6.004 c-2.209,2.178-3.459,5.146-3.472,8.246c1.006,4.518,3.566,8.535,7.233,11.356c4.641,4.269,9.707,8.05,15.118,11.284 c5.932,3.688,12.586,7.232,19.82,10.851c7.233,3.616,14.467,7.233,21.7,10.271c8.68,4.123,16.203,7.885,22.496,11.429 c5.736,3.06,10.999,6.934,15.625,11.501c4.046,4.137,7.197,9.061,9.259,14.467c1.886,6.131,2.669,12.548,2.314,18.952 c0.062,8.347-1.41,16.634-4.34,24.449c-2.789,7.418-7.101,14.17-12.659,19.818c-5.729,5.739-12.573,10.244-20.109,13.237 c-8.424,3.226-17.383,4.819-26.402,4.701c-10.316-0.16-20.572-1.618-30.525-4.34c-10.793-2.769-21.23-6.772-31.104-11.936 c-8.923-4.433-17.06-10.297-24.087-17.359c-6.003-5.335-9.581-12.881-9.91-20.905c0.245-4.477,1.248-8.879,2.966-13.02 c2.489-6.177,6.093-11.841,10.633-16.711c1.106,6.668,3.895,12.94,8.102,18.229c6.133,7.97,13.84,14.593,22.641,19.458 c9.051,5.287,18.788,9.304,28.934,11.936c9.149,2.352,18.548,3.591,27.993,3.688c7.945,0.259,15.869-0.968,23.364-3.616 c5.188-1.908,9.953-4.808,14.033-8.536c3.128-2.801,5.598-6.259,7.233-10.127c1.17-2.596,1.95-5.35,2.315-8.173 c-0.305-3.767-1.978-7.292-4.702-9.91c-3.586-3.603-7.65-6.692-12.08-9.187c-4.991-2.966-10.85-6.004-17.505-9.114 c-6.655-3.109-13.599-6.147-20.76-9.187c-10.706-4.774-20.037-9.26-27.776-13.454c-6.831-3.567-13.258-7.859-19.169-12.805 c-4.609-3.757-8.379-8.438-11.067-13.742c-2.368-5.118-3.53-10.71-3.399-16.349c0.052-9.717,3.082-19.184,8.68-27.125 c6.285-8.919,15.143-15.708,25.389-19.458c5.595-2.443,11.477-4.17,17.505-5.136c6.048-1.021,12.168-1.552,18.301-1.592 c11.18,0.012,22.304,1.568,33.057,4.63C145.7,1035.968,156.479,1039.907,166.948,1044.578z"/>
    <path display="inline" d="M187.491,1119.083c-1.248-1.971-2.039-4.194-2.315-6.51c-0.661-2.824-1.024-5.709-1.085-8.608 c4.232,0.702,8.513,1.065,12.803,1.085h11.284c2.604-5.063,5.354-10.127,8.318-15.118c2.966-4.989,5.932-9.548,8.752-13.671 c2.446-3.63,5.078-7.13,7.884-10.488c1.683-2.097,3.628-3.968,5.787-5.569c2.194,0.059,4.377,0.35,6.51,0.868 c2.677,0.65,5.354,1.375,8.103,2.314c2.749,0.939,5.208,1.953,7.233,2.965c1.708,0.695,3.259,1.729,4.557,3.038 c-5.136,6.511-9.476,12.442-13.165,17.939c-3.689,5.497-7.668,11.861-11.937,18.95h10.416c3.557,0.008,7.11-0.234,10.633-0.723 c0.886,0.91,1.576,1.994,2.025,3.184c0.513,1.264,0.783,2.613,0.796,3.979c-9.792,3.474-20.139,5.116-30.525,4.846 c-4.268,8.246-8.029,16.42-11.356,24.521s-6.148,15.985-8.463,23.509c-2.191,6.979-3.978,14.081-5.353,21.267 c-1.222,5.929-1.875,11.959-1.953,18.012c0,7.522,2.821,11.719,8.463,12.587c4.961-0.683,9.82-1.97,14.467-3.834 c4.434-1.789,8.579-4.229,12.297-7.233c0.846,1.166,1.438,2.497,1.736,3.906c-1.482,1.993-3.235,3.771-5.208,5.28 c-2.587,2.149-5.292,4.153-8.102,6.004c-2.71,1.845-5.537,3.512-8.463,4.991c-1.924,1.054-3.998,1.81-6.148,2.241 c-4.389-0.036-8.731-0.895-12.803-2.532c-4.135-1.65-8.047-3.813-11.646-6.438c-3.315-2.361-6.202-5.271-8.535-8.607 c-2.078-2.675-3.245-5.944-3.328-9.331c0.087-5.199,0.645-10.381,1.664-15.479c1.085-6.294,2.677-13.021,4.702-20.398 c2.025-7.379,4.484-15.046,7.233-23.074c2.749-8.029,5.714-15.985,8.969-23.87h-14.247V1119.083z"/>
    <path display="inline" d="M350.822,1113.729c2.028,0.045,4.045,0.336,6.004,0.868c2.166,0.571,4.271,1.348,6.293,2.314 c1.672,0.812,3.249,1.807,4.701,2.966c1.303,1.013,1.953,1.953,1.953,2.82c-3.399,7.232-6.582,14.468-9.477,21.701 c-2.894,7.232-5.353,14.467-7.232,20.903c-1.906,6.131-3.477,12.36-4.701,18.662c-1.012,4.979-1.567,10.039-1.664,15.118 c-0.105,4.009,0.406,8.01,1.519,11.862c0.771,2.844,2.611,5.28,5.136,6.8c-2.45,1.539-5.14,2.663-7.955,3.327 c-2.825,0.806-5.743,1.243-8.682,1.302c-9.259,0-13.814-6.293-13.814-18.951c0.929-13.804,4.258-27.341,9.837-40.001 c-3.338,7.54-7.281,14.797-11.79,21.7c-4.075,6.387-8.597,12.479-13.526,18.229c-4.202,5.101-9.013,9.666-14.323,13.6 c-3.853,2.878-8.262,4.923-12.948,6.004c-6.286,0.02-12.115-3.281-15.335-8.68c-4.145-6.459-6.214-14.031-5.931-21.7 c0.154-10.396,2.239-20.674,6.148-30.31c4.02-10.473,9.316-20.408,15.769-29.584c5.877-8.484,12.886-16.127,20.833-22.714 c5.944-5.493,13.618-8.74,21.7-9.187c2.081,0.726,4.034,1.775,5.787,3.109c2.202,1.602,4.26,3.393,6.148,5.354 c1.854,1.914,3.523,3.996,4.99,6.221c1.146,1.652,1.934,3.524,2.314,5.498c-7.686,1.219-14.932,4.38-21.05,9.188 c-7.483,5.837-14.128,12.677-19.747,20.324c-5.845,7.84-10.703,16.366-14.467,25.391c-3.528,7.984-5.446,16.589-5.642,25.316 c-0.351,2.638,1.141,5.175,3.617,6.148c6.865-2.422,12.841-6.858,17.144-12.73c8.837-10.775,16.729-22.297,23.581-34.432 l5.714-10.199c2.171-3.762,4.342-7.739,6.583-11.791l6.511-12.44C347.205,1121.687,348.941,1117.636,350.822,1113.729z"/>
    <path display="inline" d="M376.718,1212.032c0.796-4.918,2.314-11.43,4.485-19.53c2.17-8.101,4.629-16.781,7.232-25.896 c2.604-9.114,6.004-18.302,9.188-27.561c3.183-9.259,6.438-17.505,9.476-24.811c1.743-4.256,3.724-8.408,5.933-12.441 c1.527-2.666,3.429-5.103,5.642-7.233c2.46,0.388,4.881,0.993,7.233,1.81c2.483,0.828,4.901,1.844,7.232,3.037 c2.207,1.119,4.356,2.352,6.438,3.688c1.606,1.057,3.065,2.321,4.341,3.762c-4.807,5.695-8.889,11.964-12.152,18.662 c-3.965,8.521-7.301,17.322-9.981,26.33c9.162-8.198,17.313-16.059,24.449-23.581c7.308-7.789,13.938-16.186,19.818-25.101 c1.612-0.959,3.484-1.391,5.354-1.229c2.462-0.057,4.913,0.335,7.232,1.157c1.871,0.479,3.513,1.608,4.63,3.183 c-3.019,7.75-4.587,15.988-4.63,24.306c-0.374,5.835,0.772,11.667,3.328,16.927c-0.778,2.152-1.957,4.141-3.473,5.857 c-2.189,2.913-4.608,5.646-7.233,8.175c-4.712-2.398-8.913-5.69-12.369-9.692c-3.486-4.017-6.188-8.654-7.955-13.672 c-7.216,4.994-14.058,10.506-20.472,16.493c-5.604,5.303-10.472,11.337-14.468,17.938c-4.262,7.138-7.707,14.732-10.271,22.642 c-2.748,8.535-5.496,18.733-8.027,30.524c-1.894-0.333-3.738-0.892-5.498-1.664c-2.233-0.986-4.386-2.147-6.438-3.472 c-2.016-1.294-3.927-2.745-5.715-4.34C378.624,1215.151,377.485,1213.691,376.718,1212.032z"/>
    <path display="inline" d="M501.133,1119.083c-1.217-1.985-2.005-4.203-2.313-6.51c-0.605-2.832-0.944-5.714-1.014-8.608 c4.232,0.702,8.515,1.065,12.805,1.085h11.284c2.53-5.063,5.353-10.127,8.317-15.118c2.966-4.989,5.858-9.548,8.68-13.671 c2.47-3.632,5.124-7.133,7.957-10.488c1.664-2.112,3.611-3.986,5.786-5.569c2.194,0.066,4.376,0.357,6.512,0.868 c2.677,0.65,5.353,1.375,8.102,2.314s5.208,1.953,7.232,2.965c1.738,0.681,3.314,1.714,4.629,3.038 c-5.136,6.511-9.547,12.442-13.163,17.939c-3.617,5.497-7.669,11.861-11.937,18.95h10.199c3.557,0.013,7.109-0.229,10.633-0.723 c0.934,0.888,1.65,1.977,2.098,3.184c0.49,1.269,0.735,2.617,0.725,3.979c-9.766,3.479-20.09,5.122-30.453,4.846 c-4.268,8.246-8.102,16.42-11.429,24.521s-5.859,15.985-7.739,23.509c-2.18,6.989-3.99,14.088-5.426,21.267 c-1.163,5.937-1.793,11.963-1.881,18.013c0,7.521,2.82,11.718,8.464,12.586c4.962-0.677,9.82-1.963,14.467-3.834 c4.45-1.756,8.6-4.196,12.297-7.233c0.862,1.165,1.479,2.494,1.81,3.906c-1.492,2.009-3.271,3.788-5.281,5.28 c-2.563,2.149-5.242,4.153-8.029,6.004c-2.709,1.845-5.536,3.512-8.463,4.991c-1.93,1.043-4,1.8-6.148,2.241 c-4.389-0.036-8.73-0.895-12.803-2.532c-4.143-1.636-8.057-3.8-11.646-6.438c-3.314-2.361-6.201-5.271-8.534-8.607 c-2.101-2.668-3.291-5.938-3.399-9.331c0.126-5.196,0.684-10.375,1.663-15.479c1.158-6.294,2.749-13.021,4.774-20.398 c2.024-7.379,4.412-15.046,7.232-23.074c2.821-8.029,5.715-15.985,8.971-23.87h-14.977V1119.083z"/>
    <path display="inline" d="M814.559,1076.044c0.15,10.128-2.887,20.047-8.68,28.355c-6.229,8.621-14.376,15.68-23.799,20.614 c6.269,4.222,11.55,9.748,15.479,16.202c3.842,6.398,5.845,13.732,5.787,21.194c-0.171,9.688-3.053,19.136-8.317,27.271 c-5.864,9.239-13.395,17.311-22.207,23.798c-9.603,7.118-20.205,12.773-31.466,16.781c-11.59,4.228-23.831,6.381-36.168,6.365 c-12.072,0.344-24.061-2.133-35.01-7.233c-9.717-4.829-17.831-12.365-23.363-21.699c1.64-5.111,3.883-11.478,6.728-19.097 c2.821-7.232,5.933-15.625,9.403-24.016c3.473-8.392,7.232-16.854,10.344-25.244c3.11-8.392,6.8-15.914,9.838-22.568 c6.51-14.467,12.297-26.547,17.434-36.168c4.244-7.945,9.08-15.563,14.467-22.784c-8.758,2.668-17.314,5.955-25.606,9.838 c-6.139,2.685-11.844,6.268-16.926,10.633c-1.796-1.266-3.383-2.802-4.702-4.557c-1.7-2.156-3.247-4.429-4.63-6.801 c-1.438-2.415-2.648-4.957-3.616-7.595c-0.838-2.213-1.396-4.521-1.664-6.872c5.415-3.579,11.214-6.539,17.288-8.825 c7.56-2.956,15.318-5.373,23.22-7.232c8.467-2.098,17.037-3.739,25.68-4.919c8.367-1.127,16.801-1.707,25.244-1.735 c16.942-0.975,33.771,3.321,48.175,12.297C808.643,1049.692,815.088,1062.531,814.559,1076.044z M717.052,1137.384 c-3.443-1.786-6.495-4.246-8.97-7.232c-3.979,8.68-7.667,17.215-11.14,25.605s-6.654,16.13-9.403,23.291 s-4.919,13.454-6.654,18.735c-1.327,3.877-2.271,7.874-2.82,11.935c2.684,1.478,5.592,2.503,8.606,3.038 c4.099,0.796,8.269,1.159,12.441,1.085c11.274,0.036,22.491-1.621,33.273-4.919c9.972-3.052,19.396-7.666,27.921-13.671 c7.542-5.094,14.047-11.574,19.17-19.096c4.62-6.601,7.143-14.44,7.232-22.496c0.585-10.313-5.136-19.95-14.467-24.377 c-14.333,5.687-29.647,8.489-45.064,8.246h-5.498C720.137,1137.61,718.588,1137.563,717.052,1137.384z M766.745,1048.412 c-3.794,0.013-7.585,0.229-11.356,0.651c-4.051,0.434-8.246,1.084-12.658,1.952c0.655,0.641,1.216,1.371,1.664,2.171 c0,0.723,0.795,1.519,1.157,2.387c-2.082,2.857-3.968,5.854-5.643,8.97c-2.242,3.979-4.701,8.535-7.233,13.743 c-2.531,5.208-5.568,10.923-8.606,17.288c-3.038,6.364-6.005,12.803-9.042,19.458c3.502-0.797,7.055-1.354,10.633-1.664 c4.109-0.432,8.238-0.648,12.369-0.65c2.242,0,4.413,0,6.583,0s4.194,0.435,6.221,0.795c7.594-1.212,15.037-3.224,22.207-6.003 c6.025-2.374,11.735-5.483,16.998-9.259c4.3-3.081,7.94-6.992,10.705-11.502c2.526-4.058,3.854-8.746,3.834-13.526 c0.365-7.491-3.34-14.6-9.692-18.59C786.273,1049.961,776.521,1047.806,766.745,1048.412z"/>
    <path display="inline" d="M850.146,1226.138c-9.229-0.768-17.696-5.423-23.291-12.803c-6.095-8.38-9.154-18.584-8.681-28.934 c0.046-7.194,1.068-14.349,3.037-21.268c2.101-7.537,5.035-14.814,8.753-21.699c3.771-6.964,8.229-13.53,13.311-19.604 c4.885-5.934,10.472-11.253,16.637-15.842c7.435-6.262,16.698-9.94,26.402-10.488c6.896,4.509,12.465,10.776,16.131,18.156h2.313 h2.242c9.114,0,13.599,8.027,13.599,24.087c0.073,10.432-1.715,20.793-5.279,30.598c-3.342,9.49-8.229,18.362-14.467,26.257 c-6.23,7.859-13.769,14.588-22.279,19.894C869.836,1219.974,860.22,1223.913,850.146,1226.138z M863.239,1145.485 c-3.015,4.074-5.745,8.354-8.175,12.803c-2.523,4.501-4.746,9.165-6.653,13.961c-1.786,4.393-3.236,8.914-4.34,13.526 c-1.001,3.827-1.535,7.762-1.593,11.718c-0.002,4,0.707,7.968,2.099,11.719c1.302,3.761,2.894,5.932,4.558,6.438 c7.639-1.685,14.837-4.962,21.121-9.62c6.542-4.823,12.195-10.747,16.709-17.505c4.811-7.38,8.514-15.421,10.995-23.871 c2.687-9.234,4.026-18.811,3.979-28.427c0.061-3.515-0.207-7.025-0.797-10.489c-0.443-2.351-1.301-4.604-2.53-6.654 c-7.398,2.255-14.246,6.022-20.109,11.067C872.875,1134.694,867.758,1139.836,863.239,1145.485z"/>
    <path display="inline" d="M963.134,1226.138c-9.239-0.73-17.722-5.394-23.292-12.803c-6.15-8.354-9.241-18.571-8.753-28.934 c0.035-7.2,1.083-14.358,3.11-21.268c2.042-7.546,4.955-14.828,8.681-21.699c3.771-6.964,8.229-13.53,13.31-19.604 c4.903-5.917,10.487-11.233,16.638-15.842c7.438-6.251,16.701-9.932,26.401-10.488c6.914,4.489,12.485,10.763,16.131,18.156h2.314 h2.314c9.042,0,13.525,8.027,13.525,24.087c0.063,10.425-1.701,20.78-5.208,30.598c-3.372,9.478-8.258,18.345-14.467,26.257 c-6.229,7.859-13.768,14.588-22.278,19.894C982.826,1219.981,973.209,1223.921,963.134,1226.138z M976.516,1145.485 c-3.015,4.074-5.744,8.354-8.174,12.803c-2.496,4.517-4.718,9.178-6.654,13.961c-1.785,4.393-3.236,8.914-4.341,13.526 c-0.966,3.835-1.499,7.765-1.591,11.718c-0.004,4,0.707,7.968,2.098,11.719c1.375,3.761,2.894,5.932,4.629,6.438 c7.631-1.714,14.821-4.988,21.121-9.62c6.504-4.846,12.129-10.767,16.639-17.505c4.838-7.363,8.544-15.409,10.995-23.871 c2.721-9.229,4.062-18.808,3.978-28.427c0.061-3.515-0.206-7.025-0.796-10.489c-0.443-2.351-1.301-4.604-2.531-6.654 c-7.524,2.208-14.501,5.979-20.471,11.067C985.932,1134.732,980.938,1139.872,976.516,1145.485z"/>
    <path display="inline" d="M1058.398,1119.083c-1.248-1.971-2.039-4.194-2.315-6.51c-0.641-2.826-0.979-5.711-1.013-8.608 c4.23,0.708,8.514,1.071,12.804,1.085h11.212c2.604-5.063,5.354-10.127,8.318-15.118c2.966-4.989,5.932-9.548,8.752-13.671 c2.444-3.647,5.102-7.15,7.957-10.488c1.644-2.106,3.564-3.98,5.715-5.569c2.218,0.063,4.424,0.354,6.582,0.868 c2.604,0.65,5.28,1.375,8.029,2.314s5.208,1.953,7.232,2.965c1.719,0.678,3.272,1.713,4.559,3.038 c-5.063,6.511-9.478,12.442-13.165,17.939c-3.689,5.497-7.668,11.861-11.863,18.95h10.344c3.558,0.008,7.11-0.234,10.634-0.723 c0.909,0.893,1.604,1.98,2.024,3.184c0.514,1.264,0.783,2.613,0.796,3.979c-9.79,3.48-20.139,5.123-30.525,4.846 c-4.268,8.246-8.027,16.42-11.355,24.521c-3.327,8.102-6.148,15.985-8.463,23.509c-2.19,6.979-3.979,14.081-5.354,21.267 c-1.222,5.929-1.876,11.959-1.953,18.012c0,7.522,2.821,11.719,8.464,12.587c4.961-0.683,9.818-1.97,14.467-3.834 c4.442-1.772,8.589-4.212,12.297-7.233c0.833,1.184,1.446,2.506,1.809,3.906c-1.531,1.974-3.307,3.748-5.279,5.28 c-2.573,2.167-5.279,4.172-8.103,6.004c-2.695,1.828-5.497,3.495-8.391,4.991c-1.93,1.043-4.001,1.799-6.148,2.241 c-4.389-0.036-8.73-0.895-12.804-2.532c-4.143-1.636-8.057-3.8-11.646-6.438c-3.336-2.362-6.245-5.271-8.608-8.607 c-2.078-2.675-3.244-5.944-3.327-9.331c0.126-5.196,0.683-10.375,1.664-15.479c1.085-6.294,2.676-13.021,4.701-20.398 c2.024-7.379,4.484-15.046,7.232-23.074c2.749-8.029,5.715-15.985,8.897-23.87h-14.177V1119.083z"/>
    <path display="inline" d="M1221.729,1114.888c-0.188,3.426-0.746,6.82-1.663,10.127c-0.867,3.247-2.005,6.417-3.399,9.477 c-1.159,2.588-2.642,5.019-4.412,7.232c-0.954,1.54-2.546,2.574-4.341,2.821c-1.881,0-2.966-1.447-3.327-3.834 c0.087-0.849,0.307-1.679,0.65-2.459c0.435-1.086,0.868-2.315,1.375-3.688c0.506-1.375,1.013-2.75,1.445-4.123 c0.396-1.143,0.615-2.338,0.651-3.546c0.054-2.145-0.524-4.258-1.664-6.074c-0.987-1.511-2.68-2.41-4.483-2.389 c-6.872,0-12.08,4.269-15.624,12.731c-4.154,12.034-5.973,24.752-5.354,37.469c-0.136,1.008-0.136,2.03,0,3.038h17.939 c0.111,0.671,0.111,1.354,0,2.025c0.149,1.202-0.219,2.411-1.014,3.327l-9.331,2.17c-1.798,0.429-3.562,0.984-5.279,1.664 c-0.888,0.302-1.649,0.886-2.171,1.663c-0.254,0.771-0.375,1.576-0.361,2.388c0,1.374,0,2.749,0,4.123s0,3.037,0,5.063 c0.599,12.535-3.563,24.833-11.646,34.432c-8.439,9.041-20.056,14.459-32.406,15.117c-2.512-0.239-4.961-0.926-7.232-2.024 c-2.58-1.261-5.007-2.814-7.233-4.629c-2.271-1.822-4.29-3.938-6.004-6.293c-1.634-2.173-2.858-4.623-3.616-7.233 c-0.014-6.472,1.395-12.867,4.123-18.735c2.707-5.878,6.484-11.199,11.141-15.695c4.843-4.668,10.476-8.439,16.637-11.141 c6.594-2.868,13.715-4.321,20.904-4.268c0.005-4.229-0.433-8.447-1.303-12.586c-0.867-4.123-1.735-8.103-2.677-11.937 c-0.938-3.834-1.88-7.667-2.676-11.355c-0.854-3.578-1.293-7.243-1.302-10.923c0.021-4.724,0.979-9.395,2.82-13.743 c1.795-4.521,4.229-8.76,7.232-12.586c3.024-3.848,6.638-7.191,10.706-9.91c3.888-2.646,8.229-4.559,12.803-5.643 c2.666,1.039,5.118,2.561,7.233,4.484c3.27,2.589,6.386,5.366,9.332,8.318c2.941,2.914,5.672,6.031,8.174,9.331 C1218.674,1109.288,1220.495,1111.946,1221.729,1114.888z M1137.242,1231.418c4.252-1.759,8.186-4.202,11.646-7.233 c7.333-6.529,12.886-14.818,16.13-24.087c1.603-4.355,2.435-8.958,2.46-13.599c-4.06,0.768-7.906,2.395-11.284,4.772 c-8.266,5.417-15.271,12.546-20.543,20.905c-2.102,3.039-3.351,6.586-3.616,10.271 C1132.137,1226.129,1134.098,1229.506,1137.242,1231.418z"/>
    <path display="inline" d="M1236.92,1119.083c-1.248-1.971-2.039-4.194-2.314-6.51c-0.642-2.826-0.98-5.711-1.014-8.608 c4.231,0.708,8.515,1.071,12.805,1.085h11.283c2.531-5.063,5.28-10.127,8.318-15.118c3.038-4.989,5.859-9.548,8.68-13.671 c2.445-3.647,5.103-7.15,7.957-10.488c1.645-2.106,3.565-3.98,5.716-5.569c2.218,0.063,4.424,0.354,6.582,0.868 c2.604,0.65,5.279,1.375,8.028,2.314c2.748,0.939,5.208,1.953,7.233,2.965c1.718,0.678,3.272,1.713,4.557,3.038 c-5.063,6.511-9.476,12.442-13.165,17.939c-3.688,5.497-7.595,11.861-11.861,18.95h10.344c3.557,0.008,7.109-0.234,10.633-0.723 c0.91,0.893,1.604,1.98,2.025,3.184c0.514,1.264,0.783,2.613,0.796,3.979c-9.767,3.473-20.09,5.115-30.453,4.846 c-4.34,8.246-8.103,16.42-11.429,24.521c-3.327,8.101-6.148,15.985-8.463,23.509c-2.19,6.979-3.979,14.081-5.354,21.267 c-1.222,5.929-1.876,11.959-1.953,18.012c0,7.522,2.82,11.719,8.463,12.587c4.961-0.683,9.819-1.97,14.468-3.834 c4.441-1.772,8.589-4.212,12.297-7.233c0.833,1.184,1.444,2.506,1.809,3.906c-1.532,1.974-3.307,3.748-5.28,5.28 c-2.573,2.167-5.278,4.172-8.102,6.004c-2.695,1.828-5.497,3.495-8.391,4.991c-1.93,1.043-4.002,1.799-6.148,2.241 c-4.389-0.036-8.73-0.895-12.804-2.532c-4.144-1.636-8.058-3.8-11.646-6.438c-3.335-2.362-6.246-5.271-8.607-8.607 c-2.078-2.675-3.244-5.944-3.327-9.331c0.126-5.196,0.683-10.375,1.664-15.479c1.085-6.294,2.676-13.021,4.701-20.398 c2.024-7.379,4.484-15.046,7.232-23.074c2.749-8.029,5.715-15.985,8.897-23.87h-14.177V1119.083z"/>
    <path display="inline" d="M1305.999,1212.032c0.868-4.918,2.313-11.43,4.484-19.53c2.17-8.101,4.63-16.781,7.232-25.896 c2.604-9.114,6.004-18.302,9.259-27.561c3.256-9.259,6.366-17.505,9.477-24.811c1.724-4.252,3.68-8.405,5.859-12.441 c1.573-2.635,3.47-5.064,5.643-7.233c2.457,0.399,4.877,1.004,7.232,1.81c2.48,0.838,4.898,1.853,7.233,3.037 c2.216,1.104,4.365,2.336,6.438,3.688c1.606,1.057,3.065,2.321,4.34,3.762c-4.807,5.695-8.889,11.964-12.152,18.662 c-3.904,8.547-7.239,17.343-9.98,26.33c9.259-8.174,17.359-16.059,24.448-23.581c7.33-7.788,13.984-16.186,19.893-25.101 c1.607-0.97,3.482-1.399,5.353-1.229c2.341-0.021,4.667,0.37,6.872,1.157c1.871,0.479,3.511,1.608,4.629,3.183 c-2.982,7.76-4.552,15.991-4.629,24.306c-0.354,5.842,0.816,11.675,3.399,16.927c-0.842,2.123-2.015,4.101-3.473,5.857 c-2.191,2.911-4.61,5.646-7.232,8.175c-9.443-5.021-16.649-13.414-20.183-23.51c-7.146,5.1-13.916,10.707-20.254,16.782 c-5.563,5.342-10.425,11.37-14.467,17.938c-4.277,7.089-7.747,14.635-10.344,22.495c-2.821,8.535-5.497,18.734-8.103,30.525 c-1.89-0.343-3.733-0.9-5.497-1.664c-4.42-1.959-8.536-4.541-12.225-7.667C1307.841,1215.247,1306.727,1213.736,1305.999,1212.032z "/>
    <path display="inline" d="M1503.689,1113.729c2.027,0.045,4.045,0.336,6.003,0.868c2.166,0.571,4.272,1.348,6.294,2.314 c1.672,0.812,3.248,1.807,4.701,2.966c1.302,1.013,1.953,1.953,1.953,2.82c-3.4,7.232-6.583,14.468-9.477,21.701 c-2.894,7.232-5.354,14.467-7.233,20.903c-1.905,6.131-3.476,12.36-4.702,18.662c-1.045,4.974-1.603,10.036-1.662,15.118 c-0.106,4.009,0.405,8.01,1.519,11.862c0.771,2.844,2.611,5.28,5.136,6.8c-2.451,1.539-5.14,2.663-7.957,3.327 c-2.824,0.806-5.741,1.243-8.68,1.302c-9.259,0-13.816-6.293-13.816-18.951c0.929-13.766,4.206-27.271,9.693-39.929 c-3.339,7.54-7.282,14.797-11.791,21.7c-4.075,6.387-8.595,12.478-13.526,18.229c-4.161,5.065-8.922,9.607-14.178,13.526 c-3.853,2.878-8.262,4.923-12.947,6.004c-6.286,0.019-12.114-3.281-15.335-8.68c-4.145-6.459-6.215-14.031-5.932-21.7 c0.154-10.396,2.238-20.674,6.148-30.309c4.02-10.474,9.315-20.409,15.769-29.586c5.856-8.5,12.868-16.146,20.833-22.713 c5.944-5.492,13.618-8.74,21.7-9.187c2.081,0.726,4.032,1.774,5.786,3.11c2.201,1.601,4.26,3.392,6.147,5.353 c1.854,1.914,3.525,3.996,4.991,6.221c1.146,1.652,1.934,3.524,2.314,5.498c-7.686,1.218-14.931,4.38-21.05,9.188 c-7.483,5.837-14.129,12.677-19.747,20.325c-5.845,7.839-10.703,16.365-14.467,25.39c-3.529,7.985-5.446,16.589-5.643,25.317 c-0.352,2.637,1.142,5.174,3.616,6.147c6.865-2.422,12.841-6.858,17.144-12.731c8.838-10.774,16.728-22.296,23.581-34.431 l5.715-10.199c2.17-3.762,4.34-7.739,6.582-11.791l6.511-12.44C1499.783,1121.687,1501.809,1117.636,1503.689,1113.729z"/>
    <path display="inline" d="M1516.998,1301.944c-2.387-0.651-3.761-3.256-4.123-7.667c-0.706-2.604-1.167-5.269-1.374-7.957 c0-3.038-0.361-6.583-0.361-10.488c0.166-4.863,0.747-9.703,1.735-14.467c1.23-6.223,2.895-13.237,5.063-21.122 c2.172-7.885,4.703-16.349,7.813-25.462c3.11-9.114,6.438-18.373,10.199-27.776c4.63-11.79,8.608-21.7,12.079-30.598 c3.473-8.896,6.222-16.131,8.535-22.424c2.314-6.293,4.195-11.502,5.643-15.625s2.604-7.232,3.473-10.487 c0.859-2.474,1.875-4.89,3.038-7.233c1.438-3.021,3.03-5.968,4.774-8.825c1.734-2.966,3.615-5.786,5.496-8.463 c1.483-2.186,3.207-4.198,5.137-6.004c5.793,0.815,11.457,2.371,16.854,4.63c3.775,1.191,7.152,3.394,9.767,6.365 c-3.118,3.145-5.861,6.64-8.175,10.416c-3.258,4.95-6.252,10.068-8.969,15.335c-2.943,5.55-5.601,11.248-7.957,17.071 c-2.119,4.988-3.908,10.11-5.354,15.335c1.97-3.326,4.193-6.495,6.654-9.478c2.677-3.398,7.233-8.102,12.514-14.104 c5.348-5.648,11.316-10.671,17.795-14.975c4.264-3.009,9.264-4.809,14.467-5.208c5.81-0.268,11.51,1.643,15.986,5.354 c4.115,3.389,6.438,8.485,6.293,13.815c-0.013,12.434-2.091,24.776-6.148,36.528c-3.967,11.808-9.938,22.843-17.649,32.623 c-2.97,3.73-6.287,7.17-9.909,10.271c-3.838,3.354-7.952,6.378-12.297,9.042c-3.942,2.524-8.137,4.635-12.514,6.293 c-3.504,1.402-7.225,2.187-10.996,2.313c-2.823,0.066-5.616-0.605-8.102-1.953c-2.064-0.974-3.729-2.636-4.701-4.701 c7.277-4.46,13.838-9.995,19.458-16.42c6.646-7.435,12.511-15.53,17.505-24.16c5.534-9.441,10.254-19.34,14.105-29.585 c3.949-10.475,7-21.268,9.113-32.261c-6.183,3.178-12.064,6.906-17.576,11.14c-5.871,4.58-11.145,9.879-15.697,15.77 c-6.148,7.233-10.995,13.526-14.467,18.156c-3.473,4.629-6.51,8.535-8.825,11.79c-2.094,2.876-3.979,5.896-5.642,9.042 c-1.447,2.82-3.038,6.293-4.702,10.416c-2.388,5.426-5.208,12.659-8.318,21.699c-3.11,9.043-6.438,18.952-9.765,30.093 c-3.328,11.14-6.655,22.93-9.982,35.442c-3.328,12.516-6.51,25.102-9.621,37.542c-2.165-0.552-3.953-2.073-4.846-4.123 c-1.375-1.52-2.387-2.604-2.966-3.327C1518.786,1302.806,1517.939,1302.258,1516.998,1301.944z"/>
  </g>
  <path fill="#F9B800" d="M 493.402 1326.421 C 493.402 1317.639 495.45 1306.457 499.528 1292.864 C 503.607 1279.281 508.76 1264.857 514.978 1249.585 C 521.188 1234.326 528.113 1218.959 535.754 1203.485 C 543.388 1188.02 550.755 1174.113 557.864 1161.776 C 564.964 1149.445 571.357 1139.411 577.042 1131.668 C 582.719 1123.936 586.631 1120.065 588.762 1120.065 C 590.178 1120.065 592.134 1120.801 594.622 1122.261 C 597.103 1123.731 599.592 1125.505 602.081 1127.592 C 604.561 1129.69 606.785 1131.775 608.74 1133.865 C 610.688 1135.963 611.67 1137.843 611.67 1139.511 C 611.67 1141.185 610.421 1145.056 607.942 1151.115 C 605.452 1157.182 602.347 1164.079 598.619 1171.811 C 594.889 1179.554 590.894 1187.708 586.631 1196.275 C 582.37 1204.849 578.457 1212.688 574.911 1219.794 C 571.357 1226.91 568.519 1232.76 566.388 1237.356 C 564.256 1241.963 563.54 1244.257 564.256 1244.257 C 564.605 1244.257 566.654 1241.022 570.384 1234.534 C 574.112 1228.055 578.907 1220.107 584.766 1210.699 C 590.627 1201.29 597.369 1190.941 605.011 1179.651 C 612.644 1168.362 620.277 1158.013 627.92 1148.604 C 635.552 1139.195 642.836 1131.258 649.762 1124.769 C 656.687 1118.29 662.813 1115.045 668.141 1115.045 C 670.98 1115.045 674.002 1116.094 677.198 1118.182 C 680.394 1120.28 683.233 1122.994 685.722 1126.335 C 688.203 1129.689 690.25 1133.342 691.848 1137.313 C 693.447 1141.292 694.246 1145.152 694.246 1148.916 C 694.246 1154.357 692.382 1160.833 688.652 1168.359 C 684.922 1175.887 680.743 1184.041 676.132 1192.822 C 671.513 1201.603 667.343 1210.6 663.613 1219.792 C 659.883 1228.995 658.019 1237.776 658.019 1246.136 C 658.019 1250.742 658.726 1253.769 660.151 1255.233 C 661.565 1256.702 663.522 1257.427 666.01 1257.427 C 671.337 1257.427 676.398 1255.233 681.193 1250.842 C 685.988 1246.452 690.426 1241.649 694.513 1236.415 C 698.591 1231.192 702.146 1226.38 705.167 1221.989 C 708.181 1217.598 710.577 1215.403 712.359 1215.403 C 713.066 1215.403 713.691 1216.344 714.223 1218.226 C 714.757 1220.107 715.023 1221.47 715.023 1222.303 C 715.023 1226.488 713.333 1232.025 709.962 1238.925 C 706.582 1245.824 702.237 1252.518 696.909 1258.993 C 691.582 1265.483 685.538 1271.126 678.797 1275.928 C 672.046 1280.741 665.478 1283.141 659.086 1283.141 C 654.465 1283.141 649.845 1281.79 645.233 1279.065 C 640.613 1276.35 636.526 1272.586 632.981 1267.775 C 629.426 1262.973 626.587 1257.329 624.456 1250.841 C 622.325 1244.362 621.26 1237.354 621.26 1229.828 C 621.26 1220.213 623.125 1210.6 626.854 1200.978 C 630.582 1191.363 634.578 1182.688 638.84 1174.948 C 643.102 1167.215 646.649 1160.943 649.495 1156.131 C 652.334 1151.329 652.867 1148.918 651.093 1148.918 C 648.962 1148.918 644.25 1153.622 636.976 1163.03 C 629.691 1172.439 621.343 1184.149 611.936 1198.155 C 602.521 1212.171 592.666 1227.635 582.37 1244.57 C 572.064 1261.504 562.566 1277.607 553.868 1292.865 C 545.16 1308.135 537.969 1321.307 532.292 1332.382 C 526.607 1343.466 523.768 1350.472 523.768 1353.394 C 523.768 1359.255 521.454 1362.175 516.842 1362.175 C 512.223 1362.175 507.162 1358.941 501.659 1352.454 C 496.149 1345.972 493.402 1337.299 493.402 1326.421 Z" style=""/>
  <path fill="#F9B800" d="M 305.327 1069.944 C 330.498 1049.375 358.22 1032.683 388.491 1019.87 C 418.748 1007.065 450.488 1000.657 483.709 1000.657 C 499.779 1000.657 514.769 1002.339 528.706 1005.698 C 542.629 1009.062 554.682 1013.788 564.864 1019.87 C 575.035 1025.962 583.069 1033.313 588.969 1041.916 C 594.859 1050.528 597.808 1060.291 597.808 1071.204 C 597.808 1085.065 593.113 1097.139 583.746 1107.425 C 574.367 1117.717 561.914 1126.319 546.383 1133.25 C 530.84 1140.178 513.038 1145.325 492.948 1148.681 C 472.861 1152.045 452.372 1153.721 431.48 1153.721 C 412.722 1153.721 393.977 1152.254 375.233 1149.311 C 356.476 1146.381 338.535 1141.969 321.397 1136.085 C 298.899 1163.386 281.621 1192.358 269.568 1223.007 C 257.516 1253.662 251.489 1282.215 251.489 1308.67 C 251.489 1324.21 253.625 1336.808 257.918 1346.462 C 262.198 1356.128 267.962 1363.469 275.195 1368.507 C 282.426 1373.549 290.864 1376.913 300.506 1378.586 C 310.148 1380.258 320.053 1381.106 330.237 1381.106 C 357.016 1381.106 379.251 1377.75 396.927 1371.028 C 414.605 1364.316 429.194 1357.073 440.72 1349.298 C 452.232 1341.531 461.473 1334.288 468.442 1327.567 C 475.398 1320.854 481.298 1317.487 486.119 1317.487 C 487.187 1317.487 488.53 1317.706 490.136 1318.119 C 491.744 1318.541 492.547 1320.854 492.547 1325.047 C 492.547 1332.605 488.654 1341.64 480.896 1352.131 C 473.123 1362.633 462.277 1372.711 448.354 1382.365 C 434.417 1392.02 417.945 1400.208 398.937 1406.931 C 379.915 1413.643 358.886 1417.009 335.86 1417.009 C 316.035 1417.009 297.015 1414.066 278.81 1408.19 C 260.592 1402.303 244.383 1393.802 230.197 1382.681 C 215.996 1371.559 204.748 1357.909 196.45 1341.738 C 188.137 1325.579 183.993 1306.995 183.993 1285.995 C 183.993 1258.28 191.49 1228.468 206.493 1196.552 C 221.482 1164.645 241.572 1134.618 266.757 1106.48 C 251.752 1095.144 239.964 1081.285 231.402 1064.908 C 222.826 1048.531 218.545 1029.429 218.545 1007.59 C 218.545 992.47 220.555 979.559 224.572 968.85 C 228.59 958.144 233.537 949.542 239.437 943.025 C 245.325 936.52 251.351 931.69 257.516 928.538 C 263.667 925.388 269.168 923.814 273.989 923.814 C 278.271 923.814 282.689 925.075 287.247 927.593 C 291.792 930.111 294.077 933.893 294.077 938.929 C 294.077 941.449 293.536 943.969 292.47 946.49 C 291.39 949.008 290.185 952.265 288.854 956.253 C 287.511 960.248 286.304 965.288 285.237 971.371 C 284.157 977.462 283.631 985.129 283.631 994.36 C 283.631 1010.737 285.501 1025.125 289.256 1037.505 C 292.998 1049.895 298.358 1060.71 305.327 1069.944 Z M 506.208 1037.82 C 476.2 1037.82 448.076 1043.913 421.837 1056.086 C 395.584 1068.271 372.018 1084.43 351.126 1104.587 C 362.376 1109.212 374.43 1112.57 387.286 1114.665 C 400.142 1116.772 413.525 1117.814 427.462 1117.814 C 442.992 1117.814 458.661 1116.663 474.467 1114.349 C 490.262 1112.047 504.461 1108.583 517.055 1103.957 C 529.635 1099.34 539.954 1093.778 547.99 1087.264 C 556.026 1080.759 560.044 1073.31 560.044 1064.906 C 560.044 1062.385 559.503 1059.55 558.435 1056.401 C 557.356 1053.253 554.946 1050.319 551.205 1047.584 C 547.45 1044.86 541.964 1042.544 534.731 1040.654 C 527.501 1038.766 517.982 1037.82 506.208 1037.82 Z" style=""/>
  <path d="M 305.414 1069.224 C 330.614 1048.635 357.995 1032.235 388.297 1019.405 C 418.602 1006.585 450.439 1000.153 483.709 1000.153 C 499.807 1000.153 514.855 1001.843 528.823 1005.207 C 542.778 1008.582 554.901 1013.336 565.12 1019.437 C 575.331 1025.558 583.443 1032.983 589.382 1041.63 C 595.305 1050.311 598.308 1060.217 598.308 1071.204 C 598.308 1085.157 593.531 1097.401 584.115 1107.765 C 574.694 1118.096 562.156 1126.758 546.585 1133.711 C 531.01 1140.651 513.148 1145.816 493.031 1149.178 C 472.922 1152.546 452.392 1154.225 431.48 1154.225 C 412.703 1154.225 393.92 1152.754 375.156 1149.809 C 356.378 1146.875 338.623 1142.509 321.562 1136.674 C 299.193 1163.866 282.068 1192.581 270.034 1223.192 C 257.993 1253.808 251.99 1282.267 251.99 1308.67 C 251.99 1324.168 254.101 1336.662 258.376 1346.256 C 262.623 1355.869 268.3 1363.105 275.48 1368.093 C 282.66 1373.107 290.998 1376.43 300.591 1378.089 C 310.212 1379.759 320.074 1380.601 330.237 1380.601 C 356.979 1380.601 379.125 1377.265 396.751 1370.556 C 414.406 1363.854 428.944 1356.637 440.442 1348.879 C 451.939 1341.123 461.147 1333.907 468.096 1327.202 C 475.101 1320.452 481.175 1316.983 486.119 1316.983 C 487.227 1316.983 488.634 1317.214 490.262 1317.631 C 491.19 1317.919 491.984 1318.757 492.417 1320.003 C 492.836 1321.208 493.048 1322.919 493.048 1325.047 C 493.048 1332.706 489.085 1341.891 481.297 1352.432 C 473.494 1362.968 462.588 1373.104 448.637 1382.781 C 434.67 1392.453 418.138 1400.672 399.103 1407.407 C 380.037 1414.13 358.925 1417.513 335.86 1417.513 C 315.997 1417.513 296.901 1414.555 278.657 1408.67 C 260.4 1402.767 244.114 1394.224 229.889 1383.079 C 215.65 1371.919 204.334 1358.186 196.006 1341.97 C 187.671 1325.75 183.493 1307.05 183.493 1285.995 C 183.493 1258.219 191.021 1228.298 206.041 1196.336 C 221.049 1164.396 240.983 1134.6 266.019 1106.551 C 251.182 1095.239 239.553 1081.566 230.959 1065.143 C 222.36 1048.705 218.044 1029.484 218.044 1007.59 C 218.044 992.431 220.073 979.431 224.104 968.672 C 228.14 957.928 233.136 949.246 239.067 942.685 C 244.985 936.153 251.082 931.267 257.29 928.088 C 263.486 924.921 269.1 923.31 273.989 923.31 C 278.339 923.31 282.878 924.612 287.489 927.151 C 292.126 929.759 294.577 933.762 294.577 938.929 C 294.577 941.502 294.01 944.124 292.93 946.689 C 291.855 949.195 290.657 952.435 289.328 956.414 C 287.991 960.388 286.794 965.392 285.73 971.459 C 284.654 977.524 284.131 985.146 284.131 994.36 C 284.131 1010.705 285.988 1025.019 289.735 1037.358 C 293.461 1049.709 298.622 1060.122 305.414 1069.224 Z M 305.241 1070.663 L 304.928 1070.25 C 297.935 1060.975 292.534 1050.08 288.778 1037.652 C 285.013 1025.231 283.13 1010.769 283.13 994.36 C 283.13 985.112 283.661 977.401 284.745 971.282 C 285.815 965.184 287.03 960.108 288.379 956.092 C 289.714 952.096 290.926 948.82 292.011 946.29 C 293.062 943.816 293.576 941.396 293.576 938.929 C 293.576 934.024 291.457 930.463 287.006 928.035 C 282.5 925.538 278.203 924.318 273.989 924.318 C 269.236 924.318 263.849 925.855 257.743 928.988 C 251.62 932.111 245.666 936.888 239.806 943.365 C 233.938 949.839 229.041 958.36 225.041 969.029 C 221.036 979.687 219.045 992.509 219.045 1007.59 C 219.045 1029.373 223.291 1048.358 231.844 1064.673 C 240.375 1081.002 252.093 1094.778 267.057 1106.076 L 267.495 1106.407 L 267.128 1106.817 C 241.965 1134.928 221.916 1164.894 206.945 1196.768 C 191.958 1228.637 184.494 1258.342 184.494 1285.995 C 184.494 1306.939 188.604 1325.407 196.895 1341.506 C 205.163 1357.631 216.342 1371.199 230.504 1382.283 C 244.653 1393.379 260.784 1401.839 278.963 1407.71 C 297.129 1413.577 316.073 1416.505 335.86 1416.505 C 358.847 1416.505 379.793 1413.156 398.772 1406.455 C 417.751 1399.744 434.165 1391.586 448.07 1381.95 C 461.966 1372.317 472.753 1362.297 480.495 1351.829 C 488.224 1341.389 492.047 1332.504 492.047 1325.047 C 492.047 1322.982 491.856 1321.441 491.472 1320.335 C 491.102 1319.27 490.69 1318.741 490.01 1318.607 C 488.426 1318.198 487.147 1317.992 486.119 1317.992 C 481.421 1317.992 475.694 1321.255 468.788 1327.931 C 461.801 1334.67 452.526 1341.94 440.999 1349.717 C 429.445 1357.508 414.805 1364.778 397.104 1371.5 C 379.376 1378.235 357.053 1381.61 330.237 1381.61 C 320.032 1381.61 310.084 1380.758 300.421 1379.084 C 290.73 1377.396 282.192 1373.991 274.911 1368.922 C 267.624 1363.833 261.774 1356.387 257.461 1346.668 C 253.15 1336.953 250.989 1324.253 250.989 1308.67 C 250.989 1282.162 257.038 1253.517 269.103 1222.821 C 281.174 1192.135 298.491 1163.096 321.012 1135.763 L 321.232 1135.496 L 321.558 1135.608 C 338.675 1141.485 356.574 1145.886 375.31 1148.813 C 394.035 1151.754 412.741 1153.216 431.48 1153.216 C 452.352 1153.216 472.8 1151.545 492.866 1148.184 C 512.928 1144.833 530.67 1139.705 546.18 1132.789 C 561.671 1125.88 574.041 1117.339 583.378 1107.084 C 592.696 1096.877 597.307 1084.973 597.307 1071.204 C 597.307 1060.364 594.414 1050.745 588.557 1042.203 C 582.694 1033.643 574.739 1026.365 564.609 1020.304 C 554.463 1014.24 542.48 1009.542 528.589 1006.188 C 514.683 1002.835 499.751 1001.161 483.709 1001.161 C 450.537 1001.161 418.895 1007.545 388.686 1020.335 C 358.446 1033.132 330.784 1049.788 305.642 1070.335 Z M 534.858 1040.166 C 542.124 1042.067 547.694 1044.425 551.5 1047.176 C 555.285 1049.954 557.786 1053.012 558.909 1056.237 C 559.986 1059.421 560.544 1062.338 560.544 1064.906 C 560.544 1073.43 556.402 1081.076 548.303 1087.658 C 540.229 1094.197 529.839 1099.799 517.226 1104.431 C 504.606 1109.065 490.357 1112.541 474.539 1114.848 C 458.715 1117.164 443.01 1118.319 427.462 1118.319 C 413.506 1118.319 400.082 1117.272 387.206 1115.163 C 374.323 1113.062 362.215 1109.688 350.936 1105.054 L 350.222 1104.76 L 350.779 1104.223 C 371.703 1084.04 395.339 1067.833 421.628 1055.628 C 447.919 1043.437 476.147 1037.316 506.208 1037.316 C 518.007 1037.316 527.588 1038.271 534.858 1040.166 Z M 506.208 1038.324 C 476.253 1038.324 448.234 1044.389 422.047 1056.544 C 395.829 1068.709 372.751 1084.533 352.031 1104.412 C 363.048 1108.877 374.537 1112.078 387.366 1114.167 C 400.201 1116.271 413.544 1117.31 427.462 1117.31 C 442.974 1117.31 458.607 1116.161 474.395 1113.85 C 490.167 1111.552 504.317 1108.101 516.883 1103.483 C 529.43 1098.881 539.679 1093.36 547.677 1086.871 C 555.649 1080.443 559.543 1073.189 559.543 1064.906 C 559.543 1062.433 559.021 1059.679 557.962 1056.564 C 556.927 1053.494 554.607 1050.684 550.912 1047.993 C 547.206 1045.297 541.805 1043.021 534.605 1041.142 C 527.413 1039.261 517.957 1038.324 506.208 1038.324 Z" style="fill: none;"/>
  <path fill="#F9B800" d="M 796.527 1115.045 C 810.02 1115.045 820.674 1119.123 828.492 1127.276 C 836.298 1135.432 840.212 1145.576 840.212 1157.697 C 840.212 1168.154 837.098 1179.553 830.888 1191.881 C 824.671 1204.22 816.238 1215.932 805.583 1227.005 C 794.928 1238.09 782.583 1247.498 768.557 1255.23 C 754.524 1262.973 739.698 1267.461 724.074 1268.716 C 720.161 1283.769 718.214 1297.566 718.214 1310.113 C 718.214 1319.736 719.546 1326.322 722.209 1329.87 C 724.873 1333.428 729.218 1335.201 735.262 1335.201 C 744.135 1335.201 753.375 1332.379 762.963 1326.736 C 772.553 1321.089 782.051 1313.877 791.466 1305.097 C 800.871 1296.316 809.928 1286.907 818.636 1276.87 C 827.334 1266.836 835.058 1257.427 841.81 1248.646 C 848.552 1239.865 854.238 1232.554 858.858 1226.694 C 863.468 1220.841 866.315 1217.706 867.382 1217.285 C 868.089 1216.873 868.713 1217.706 869.246 1219.792 C 869.778 1221.89 870.045 1223.35 870.045 1224.184 C 870.045 1227.111 867.915 1232.649 863.653 1240.802 C 859.391 1248.957 853.613 1258.266 846.338 1268.716 C 839.054 1279.173 830.622 1290.255 821.033 1301.958 C 811.444 1313.67 801.496 1324.332 791.199 1333.946 C 780.894 1343.571 770.422 1351.51 759.767 1357.783 C 749.112 1364.056 739.165 1367.189 729.934 1367.189 C 722.117 1367.189 714.925 1364.995 708.357 1360.606 C 701.782 1356.214 696.013 1350.57 691.044 1343.671 C 686.065 1336.769 682.161 1328.931 679.324 1320.15 C 676.475 1311.368 675.061 1302.803 675.061 1294.434 C 675.061 1286.074 676.393 1275.928 679.057 1264.013 C 681.72 1252.095 685.624 1239.453 690.777 1226.065 C 695.921 1212.686 702.048 1199.407 709.157 1186.238 C 716.256 1173.064 724.34 1161.256 733.397 1150.798 C 742.452 1140.351 752.31 1131.775 762.963 1125.082 C 773.618 1118.398 784.806 1115.045 796.527 1115.045 Z M 816.239 1157.697 C 816.239 1152.68 815.174 1147.975 813.043 1143.586 C 810.912 1139.195 807.716 1137 803.453 1137 C 798.476 1137 792.707 1140.135 786.14 1146.409 C 779.564 1152.681 772.905 1161.05 766.161 1171.498 C 759.411 1181.955 752.926 1193.764 746.717 1206.936 C 740.499 1220.11 735.079 1233.595 730.468 1247.393 C 743.604 1244.883 755.507 1239.975 766.161 1232.652 C 776.816 1225.341 785.873 1217.287 793.331 1208.505 C 800.79 1199.724 806.467 1190.738 810.379 1181.534 C 814.282 1172.339 816.239 1164.391 816.239 1157.697 Z" style=""/>
  <path fill="#F9B800" d="M 938.235 1115.045 C 953.151 1115.045 964.156 1119.231 971.266 1127.591 C 978.365 1135.96 983.16 1145.996 985.648 1157.696 C 991.683 1146.829 997.188 1137.841 1002.163 1130.726 C 1007.133 1123.62 1010.862 1120.064 1013.352 1120.064 C 1014.766 1120.064 1016.723 1120.799 1019.212 1122.259 C 1021.692 1123.729 1024.182 1125.502 1026.672 1127.591 C 1029.151 1129.689 1031.373 1132.089 1033.329 1134.804 C 1035.277 1137.527 1036.259 1139.928 1036.259 1142.015 C 1036.259 1144.945 1034.662 1150.59 1031.464 1158.95 C 1028.268 1167.319 1024.274 1177.041 1019.478 1188.115 C 1014.682 1199.201 1009.438 1211.009 1003.763 1223.555 C 998.076 1236.099 992.839 1248.439 988.045 1260.562 C 983.251 1272.693 979.254 1283.875 976.06 1294.116 C 972.863 1304.369 971.264 1312.621 971.264 1318.891 C 971.264 1323.91 973.036 1326.419 976.592 1326.419 C 980.138 1326.419 984.398 1323.704 989.377 1318.265 C 994.348 1312.836 999.499 1305.935 1004.828 1297.566 C 1010.154 1289.207 1015.566 1280.319 1021.076 1270.909 C 1026.579 1261.501 1031.549 1252.623 1035.994 1244.252 C 1040.43 1235.891 1044.334 1228.991 1047.714 1223.553 C 1051.084 1218.124 1053.307 1215.4 1054.373 1215.4 C 1055.08 1215.4 1055.705 1216.341 1056.238 1218.222 C 1056.77 1220.104 1057.037 1221.467 1057.037 1222.3 C 1057.037 1225.229 1055.521 1230.561 1052.509 1238.294 C 1049.488 1246.036 1045.401 1254.914 1040.255 1264.951 C 1035.103 1274.986 1029.334 1285.551 1022.941 1296.625 C 1016.548 1307.71 1009.972 1317.854 1003.228 1327.046 C 996.478 1336.248 989.819 1343.775 983.252 1349.626 C 976.676 1355.488 970.732 1358.406 965.405 1358.406 C 962.208 1358.406 958.562 1357.055 954.484 1354.33 C 950.397 1351.618 946.576 1347.962 943.03 1343.354 C 939.475 1338.757 936.545 1333.534 934.239 1327.672 C 931.925 1321.822 930.777 1315.55 930.777 1308.857 C 930.777 1303.428 931.659 1295.9 933.44 1286.276 C 926.69 1295.9 919.405 1305.512 911.598 1315.127 C 903.781 1324.751 896.149 1333.426 888.69 1341.156 C 881.231 1348.9 874.123 1355.171 867.38 1359.974 C 860.629 1364.776 855.127 1367.184 850.865 1367.184 C 847.31 1367.184 843.673 1365.717 839.944 1362.794 C 836.214 1359.872 832.834 1355.895 829.822 1350.876 C 826.799 1345.859 824.311 1339.901 822.363 1333.001 C 820.407 1326.102 819.433 1318.684 819.433 1310.734 C 819.433 1299.866 821.381 1287.527 825.294 1273.729 C 829.198 1259.929 834.433 1245.719 841.009 1231.077 C 847.577 1216.446 855.127 1202.225 863.651 1188.426 C 872.175 1174.627 880.782 1162.299 889.489 1151.42 C 898.188 1140.551 906.804 1131.77 915.327 1125.077 C 923.851 1118.398 931.485 1115.045 938.235 1115.045 Z M 858.856 1322.657 C 858.856 1328.096 860.096 1330.811 862.586 1330.811 C 868.263 1330.811 875.371 1326.421 883.895 1317.638 C 892.419 1308.857 901.025 1298.615 909.734 1286.904 C 918.431 1275.201 926.864 1263.383 935.038 1251.464 C 943.205 1239.548 949.597 1230.451 954.217 1224.178 C 957.763 1215.82 961.409 1207.352 965.137 1198.777 C 968.866 1190.212 972.68 1182.157 976.592 1174.63 C 976.592 1170.454 976.41 1166.163 976.06 1161.773 C 975.702 1157.381 975.076 1153.305 974.193 1149.539 C 973.303 1145.778 971.971 1142.75 970.198 1140.445 C 968.418 1138.152 966.111 1136.995 963.272 1136.995 C 958.295 1136.995 952.167 1140.757 944.892 1148.286 C 937.609 1155.812 930.15 1165.436 922.517 1177.136 C 914.876 1188.848 907.242 1201.911 899.61 1216.337 C 891.969 1230.765 885.134 1244.778 879.099 1258.362 C 873.056 1271.956 868.178 1284.499 864.449 1295.995 C 860.721 1307.506 858.856 1316.384 858.856 1322.657 Z" style=""/>
  <path fill="#F9B800" d="M 1071.414 1155.188 C 1065.371 1153.1 1061.732 1150.17 1060.493 1146.407 C 1059.245 1142.643 1058.627 1138.47 1058.627 1133.863 C 1058.627 1128.012 1059.602 1123.827 1061.559 1121.32 C 1063.506 1118.811 1068.75 1117.557 1077.275 1117.557 L 1089.528 1117.557 C 1096.987 1102.503 1103.647 1090.175 1109.506 1080.551 C 1115.367 1070.936 1119.362 1066.124 1121.493 1066.124 C 1122.908 1066.124 1124.864 1066.86 1127.353 1068.319 C 1129.834 1069.79 1132.323 1071.563 1134.811 1073.651 C 1137.292 1075.749 1139.514 1078.149 1141.469 1080.863 C 1143.419 1083.586 1144.402 1085.991 1144.402 1088.075 C 1144.402 1090.173 1143.51 1093.722 1141.737 1098.737 C 1139.957 1103.758 1137.649 1109.823 1134.811 1116.927 C 1140.846 1117.349 1145.017 1118.712 1147.331 1121.005 C 1149.637 1123.308 1150.794 1128.217 1150.794 1135.744 C 1150.794 1141.184 1149.729 1145.682 1147.599 1149.23 C 1145.468 1152.788 1139.957 1154.562 1131.083 1154.562 C 1129.302 1154.562 1127.437 1154.562 1125.49 1154.562 C 1123.534 1154.562 1121.311 1154.777 1118.831 1155.188 C 1112.438 1170.241 1105.686 1186.03 1098.587 1202.544 C 1091.477 1219.067 1084.819 1234.953 1078.608 1250.21 C 1072.391 1265.482 1067.33 1279.279 1063.423 1291.609 C 1059.514 1303.946 1057.563 1313.042 1057.563 1318.893 C 1057.563 1321.402 1058.539 1323.283 1060.495 1324.539 C 1062.441 1325.793 1064.49 1326.421 1066.62 1326.421 C 1071.591 1326.421 1076.917 1323.706 1082.602 1318.266 C 1088.281 1312.837 1094.056 1305.936 1099.917 1297.567 C 1105.777 1289.209 1111.546 1280.321 1117.232 1270.911 C 1122.91 1261.503 1128.062 1252.624 1132.682 1244.254 C 1137.293 1235.892 1141.289 1228.993 1144.668 1223.555 C 1148.038 1218.126 1150.261 1215.401 1151.327 1215.401 C 1152.034 1215.401 1152.658 1216.342 1153.192 1218.223 C 1153.723 1220.105 1153.99 1221.469 1153.99 1222.302 C 1153.99 1225.232 1152.474 1230.562 1149.462 1238.295 C 1146.442 1246.037 1142.272 1254.915 1136.943 1264.952 C 1131.616 1274.99 1125.49 1285.554 1118.564 1296.626 C 1111.637 1307.712 1104.263 1317.855 1096.456 1327.047 C 1088.64 1336.25 1080.74 1343.777 1072.748 1349.628 C 1064.757 1355.489 1057.206 1358.408 1050.106 1358.408 C 1040.517 1358.408 1032.608 1353.499 1026.399 1343.671 C 1020.18 1333.851 1017.076 1322.248 1017.076 1308.86 C 1017.076 1303.009 1018.674 1294.434 1021.87 1283.143 C 1025.066 1271.853 1029.145 1259.211 1034.125 1245.196 C 1039.094 1231.192 1044.863 1216.344 1051.438 1200.664 C 1058.003 1184.981 1064.664 1169.83 1071.414 1155.188 Z" style=""/>
  <path fill="#F9B800" d="M 1232.828 1115.045 C 1246.322 1115.045 1256.977 1119.123 1264.793 1127.276 C 1272.599 1135.432 1276.513 1145.576 1276.513 1157.697 C 1276.513 1168.154 1273.399 1179.553 1267.189 1191.881 C 1260.971 1204.22 1252.54 1215.932 1241.884 1227.005 C 1231.232 1238.09 1218.884 1247.498 1204.858 1255.23 C 1190.823 1262.973 1175.999 1267.461 1160.373 1268.716 C 1156.462 1283.769 1154.513 1297.566 1154.513 1310.113 C 1154.513 1319.736 1155.845 1326.322 1158.508 1329.87 C 1161.173 1333.428 1165.517 1335.201 1171.562 1335.201 C 1180.433 1335.201 1189.674 1332.379 1199.263 1326.736 C 1208.853 1321.089 1218.35 1313.877 1227.764 1305.097 C 1237.17 1296.316 1246.229 1286.907 1254.935 1276.87 C 1263.634 1266.836 1271.358 1257.427 1278.111 1248.646 C 1284.851 1239.865 1290.539 1232.554 1295.157 1226.694 C 1299.768 1220.841 1302.615 1217.706 1303.681 1217.285 C 1304.389 1216.873 1305.012 1217.706 1305.547 1219.792 C 1306.077 1221.89 1306.345 1223.35 1306.345 1224.184 C 1306.345 1227.111 1304.216 1232.649 1299.954 1240.802 C 1295.69 1248.957 1289.914 1258.266 1282.639 1268.716 C 1275.355 1279.173 1266.921 1290.255 1257.334 1301.958 C 1247.744 1313.67 1237.795 1324.332 1227.5 1333.946 C 1217.193 1343.571 1206.722 1351.51 1196.067 1357.783 C 1185.413 1364.056 1175.466 1367.189 1166.233 1367.189 C 1158.418 1367.189 1151.226 1364.995 1144.658 1360.606 C 1138.083 1356.214 1132.314 1350.57 1127.345 1343.671 C 1122.366 1336.769 1118.462 1328.931 1115.622 1320.15 C 1112.776 1311.368 1111.361 1302.803 1111.361 1294.434 C 1111.361 1286.074 1112.694 1275.928 1115.357 1264.013 C 1118.018 1252.095 1121.923 1239.453 1127.077 1226.065 C 1132.221 1212.686 1138.349 1199.407 1145.457 1186.238 C 1152.557 1173.064 1160.641 1161.256 1169.697 1150.798 C 1178.752 1140.351 1188.61 1131.775 1199.263 1125.082 C 1209.919 1118.398 1221.107 1115.045 1232.828 1115.045 Z M 1252.539 1157.697 C 1252.539 1152.68 1251.474 1147.975 1249.344 1143.586 C 1247.213 1139.195 1244.015 1137 1239.753 1137 C 1234.777 1137 1229.007 1140.135 1222.439 1146.409 C 1215.863 1152.681 1209.206 1161.05 1202.462 1171.498 C 1195.711 1181.955 1189.226 1193.764 1183.018 1206.936 C 1176.8 1220.11 1171.38 1233.595 1166.768 1247.393 C 1179.905 1244.883 1191.807 1239.975 1202.462 1232.652 C 1213.116 1225.341 1222.174 1217.287 1229.632 1208.505 C 1237.091 1199.724 1242.769 1190.738 1246.679 1181.534 C 1250.583 1172.339 1252.539 1164.391 1252.539 1157.697 Z" style=""/>
  <path fill="#F9B800" d="M 1374.003 1115.045 C 1378.972 1115.045 1384.123 1115.783 1389.452 1117.242 C 1394.779 1118.712 1399.574 1121.114 1403.837 1124.454 C 1408.098 1127.807 1411.645 1131.883 1414.492 1136.685 C 1417.329 1141.497 1418.753 1147.458 1418.753 1154.563 C 1418.753 1159.581 1418.038 1164.393 1416.623 1168.989 C 1415.201 1173.595 1413.334 1177.771 1411.03 1181.533 C 1408.716 1185.295 1406.233 1188.334 1403.57 1190.628 C 1400.908 1192.931 1398.327 1194.078 1395.845 1194.078 C 1391.583 1194.078 1389.452 1191.159 1389.452 1185.297 C 1389.452 1179.446 1389.802 1172.859 1390.518 1165.539 C 1391.226 1158.229 1391.583 1151.642 1391.583 1145.781 C 1391.583 1139.929 1389.269 1137 1384.658 1137 C 1378.264 1137 1370.273 1142.959 1360.684 1154.876 C 1351.096 1166.793 1341.681 1181.641 1332.448 1199.408 C 1323.21 1217.187 1315.31 1236.102 1308.742 1256.173 C 1302.166 1276.244 1298.886 1294.434 1298.886 1310.741 C 1298.886 1319.943 1300.217 1326.324 1302.88 1329.872 C 1305.544 1333.429 1309.889 1335.203 1315.933 1335.203 C 1324.805 1335.203 1334.046 1332.282 1343.635 1326.422 C 1353.225 1320.571 1362.723 1313.25 1372.138 1304.468 C 1381.543 1295.688 1390.601 1286.279 1399.308 1276.244 C 1408.005 1266.208 1415.729 1256.8 1422.481 1248.019 C 1429.224 1239.238 1434.91 1231.927 1439.529 1226.065 C 1444.142 1220.213 1446.986 1217.285 1448.053 1217.285 C 1448.76 1217.285 1449.385 1218.226 1449.918 1220.107 C 1450.45 1221.989 1450.718 1223.352 1450.718 1224.185 C 1450.718 1227.113 1448.588 1232.651 1444.325 1240.804 C 1440.062 1248.959 1434.284 1258.268 1427.009 1268.718 C 1419.725 1279.175 1411.293 1290.256 1401.705 1301.96 C 1392.115 1313.672 1382.167 1324.334 1371.872 1333.948 C 1361.566 1343.573 1351.094 1351.511 1340.438 1357.785 C 1329.785 1364.057 1319.838 1367.191 1310.606 1367.191 C 1302.79 1367.191 1295.598 1364.997 1289.03 1360.608 C 1282.455 1356.216 1276.685 1350.572 1271.717 1343.673 C 1266.739 1336.771 1262.834 1329.039 1259.995 1320.464 C 1257.149 1311.898 1255.732 1303.431 1255.732 1295.062 C 1255.732 1286.702 1257.148 1276.461 1259.995 1264.327 C 1262.833 1252.205 1266.829 1239.553 1271.982 1226.38 C 1277.127 1213.208 1283.252 1199.939 1290.362 1186.551 C 1297.461 1173.174 1305.362 1161.256 1314.068 1150.799 C 1322.766 1140.352 1332.181 1131.776 1342.305 1125.084 C 1352.427 1118.398 1362.989 1115.045 1374.003 1115.045 Z" style=""/>
  <path fill="#F9B800" d="M 1397.974 1326.421 C 1397.974 1317.639 1400.904 1303.84 1406.764 1285.023 C 1412.626 1266.207 1420.084 1245.301 1429.14 1222.302 C 1438.196 1199.309 1448.136 1175.475 1458.974 1150.798 C 1469.804 1126.131 1480.191 1103.658 1490.14 1083.372 C 1500.078 1063.096 1508.786 1046.473 1516.245 1033.508 C 1523.702 1020.551 1528.498 1014.064 1530.628 1014.064 C 1532.401 1014.064 1534.534 1014.799 1537.021 1016.26 C 1539.501 1017.73 1541.991 1019.612 1544.479 1021.906 C 1546.96 1024.208 1549.092 1026.61 1550.873 1029.117 C 1552.646 1031.628 1553.537 1033.93 1553.537 1036.017 C 1553.537 1037.694 1551.138 1044.485 1546.346 1056.404 C 1541.549 1068.319 1535.599 1082.648 1528.498 1099.368 C 1521.39 1116.097 1513.756 1133.973 1505.591 1152.996 C 1497.416 1172.027 1489.958 1189.589 1483.215 1205.681 C 1476.465 1221.785 1470.87 1235.161 1466.434 1245.825 C 1461.989 1256.488 1460.124 1261.819 1460.84 1261.819 C 1461.189 1261.819 1463.587 1258.368 1468.031 1251.469 C 1472.469 1244.57 1478.327 1235.788 1485.611 1225.125 C 1492.886 1214.462 1501.061 1203.075 1510.117 1190.943 C 1519.173 1178.82 1528.139 1167.422 1537.019 1156.759 C 1545.892 1146.097 1554.335 1137.316 1562.327 1130.417 C 1570.317 1123.517 1576.793 1120.067 1581.77 1120.067 C 1584.608 1120.067 1587.713 1121.116 1591.094 1123.202 C 1594.466 1125.3 1597.569 1127.808 1600.417 1130.729 C 1603.256 1133.658 1605.653 1136.904 1607.608 1140.451 C 1609.555 1144.01 1610.539 1147.254 1610.539 1150.174 C 1610.539 1154.359 1609.023 1160.525 1606.012 1168.678 C 1602.989 1176.833 1599.259 1186.141 1594.822 1196.591 C 1590.377 1207.047 1585.499 1218.131 1580.173 1229.832 C 1574.844 1241.544 1569.959 1252.942 1565.523 1264.017 C 1561.078 1275.099 1557.348 1285.341 1554.335 1294.75 C 1551.313 1304.159 1549.807 1311.999 1549.807 1318.271 C 1549.807 1323.71 1551.405 1326.425 1554.602 1326.425 C 1558.506 1326.425 1562.942 1323.71 1567.919 1318.271 C 1572.891 1312.842 1578.042 1305.941 1583.369 1297.572 C 1588.698 1289.213 1594.107 1280.327 1599.62 1270.915 C 1605.122 1261.507 1610.092 1252.629 1614.537 1244.258 C 1618.973 1235.897 1622.876 1228.998 1626.257 1223.561 C 1629.628 1218.131 1631.851 1215.406 1632.917 1215.406 C 1633.622 1215.406 1634.248 1216.347 1634.78 1218.229 C 1635.314 1220.111 1635.579 1221.473 1635.579 1222.306 C 1635.579 1225.236 1634.065 1230.568 1631.052 1238.3 C 1628.032 1246.043 1623.943 1254.92 1618.798 1264.957 C 1613.646 1274.994 1607.878 1285.558 1601.484 1296.632 C 1595.091 1307.717 1588.515 1317.86 1581.772 1327.052 C 1575.021 1336.256 1568.453 1343.781 1562.06 1349.633 C 1555.667 1355.495 1549.807 1358.414 1544.479 1358.414 C 1540.926 1358.414 1537.106 1357.062 1533.027 1354.337 C 1528.94 1351.624 1525.119 1348.065 1521.573 1343.676 C 1518.018 1339.284 1515.089 1334.374 1512.781 1328.936 C 1510.468 1323.505 1509.318 1317.862 1509.318 1312.001 C 1509.318 1304.475 1511.183 1294.966 1514.912 1283.462 C 1518.641 1271.967 1523.252 1259.94 1528.763 1247.396 C 1534.266 1234.852 1540.127 1222.208 1546.344 1209.448 C 1552.554 1196.696 1558.064 1185.3 1562.858 1175.264 C 1567.653 1165.23 1571.292 1157.077 1573.781 1150.803 C 1576.259 1144.53 1576.618 1141.394 1574.844 1141.394 C 1572.714 1141.394 1567.653 1146.207 1559.661 1155.822 C 1551.67 1165.447 1542.164 1177.677 1531.159 1192.515 C 1520.148 1207.362 1508.693 1223.562 1496.797 1241.125 C 1484.894 1258.687 1473.797 1275.306 1463.501 1290.989 C 1453.197 1306.669 1444.763 1320.261 1438.196 1331.759 C 1431.62 1343.264 1428.34 1350.477 1428.34 1353.398 C 1428.34 1359.258 1426.027 1362.178 1421.414 1362.178 C 1416.795 1362.178 1411.734 1358.945 1406.23 1352.457 C 1400.722 1345.972 1397.974 1337.299 1397.974 1326.421 Z" style=""/>
</svg>